G04 #@! TF.FileFunction,Copper,L1,Top,Signal*
%FSLAX46Y46*%
G04 Gerber Fmt 4.6, Leading zero omitted, Abs format (unit mm)*
G04 Created by KiCad (PCBNEW 4.0.4-stable) date 04/15/18 13:16:19*
%MOMM*%
%LPD*%
G01*
G04 APERTURE LIST*
%ADD10C,0.100000*%
%ADD11R,1.700000X1.700000*%
%ADD12O,1.700000X1.700000*%
%ADD13O,2.540000X1.524000*%
%ADD14R,1.270000X2.540000*%
%ADD15R,5.000000X1.000000*%
%ADD16R,1.500000X2.000000*%
%ADD17C,1.400000*%
%ADD18R,2.000000X1.100000*%
%ADD19C,0.800000*%
%ADD20C,0.600000*%
%ADD21C,0.500000*%
%ADD22C,0.300000*%
%ADD23C,0.250000*%
G04 APERTURE END LIST*
D10*
D11*
X151130000Y-109220000D03*
D12*
X151130000Y-111760000D03*
X151130000Y-114300000D03*
X151130000Y-116840000D03*
X151130000Y-119380000D03*
D13*
X132080000Y-99060000D03*
X132080000Y-97180000D03*
X132080000Y-100940000D03*
X132080000Y-102820000D03*
X132080000Y-104700000D03*
X132080000Y-106580000D03*
X132080000Y-108460000D03*
X132080000Y-95300000D03*
X132080000Y-93420000D03*
X132080000Y-91540000D03*
X147080000Y-108460000D03*
X147080000Y-106580000D03*
X147080000Y-104700000D03*
X147080000Y-102820000D03*
X147080000Y-100940000D03*
X147080000Y-99060000D03*
X147080000Y-97180000D03*
X147080000Y-95300000D03*
X147080000Y-93420000D03*
X147080000Y-91540000D03*
D14*
X134040000Y-120650000D03*
X134040000Y-112650000D03*
X138540000Y-112650000D03*
X138540000Y-120650000D03*
X141660000Y-120650000D03*
X141660000Y-112650000D03*
X146160000Y-112650000D03*
X146160000Y-120650000D03*
D15*
X173750000Y-120045000D03*
D16*
X179750000Y-91045000D03*
X178750000Y-119445000D03*
X167250000Y-119445000D03*
D17*
X158750000Y-115245000D03*
D18*
X155250000Y-118295000D03*
X155250000Y-115795000D03*
X155250000Y-114095000D03*
X155250000Y-111695000D03*
X155250000Y-109195000D03*
X155250000Y-106695000D03*
X155250000Y-104195000D03*
X155250000Y-101695000D03*
X155250000Y-99195000D03*
X155250000Y-96695000D03*
D17*
X158750000Y-95245000D03*
D15*
X173750000Y-90645000D03*
D19*
X157480000Y-107442000D03*
X160655000Y-118745000D03*
X167132000Y-102616000D03*
X170180000Y-100330000D03*
X165735000Y-111760000D03*
X168275000Y-97790000D03*
D20*
X173990000Y-101600000D03*
X172720000Y-105410000D03*
X171450000Y-107950000D03*
X173355000Y-104140000D03*
X172720000Y-107950000D03*
X134040000Y-116205000D03*
X178435000Y-104140000D03*
X178435000Y-110490000D03*
X141660000Y-118110000D03*
X179705000Y-110490000D03*
X177165000Y-102870000D03*
X175260000Y-102235000D03*
X168656000Y-102870000D03*
X177165000Y-104140000D03*
X177165000Y-109220000D03*
X153035000Y-99060000D03*
X151765000Y-98425000D03*
X150622000Y-97282000D03*
X144780000Y-96774000D03*
X142240000Y-97028000D03*
X142240000Y-104648000D03*
X144526000Y-99060000D03*
X141478000Y-95250000D03*
X141478000Y-99060000D03*
X144780000Y-93472000D03*
X137160000Y-92710000D03*
X136906000Y-101092000D03*
X136906000Y-99060000D03*
X136144000Y-97282000D03*
X144780000Y-95758000D03*
X136144000Y-96266000D03*
X136144000Y-102870000D03*
X135382000Y-92456000D03*
X144526000Y-100330000D03*
X135382000Y-100330000D03*
X135382000Y-106426000D03*
X134620000Y-101854000D03*
X144526000Y-102108000D03*
X134620000Y-94234000D03*
X134366000Y-108458000D03*
X140208000Y-107950000D03*
X144272000Y-103886000D03*
X140208000Y-103886000D03*
X140208000Y-93472000D03*
X144526000Y-106172000D03*
X138938000Y-106172000D03*
X138938000Y-91186000D03*
X143764000Y-102870000D03*
X143002000Y-101092000D03*
X143002000Y-97790000D03*
X172085000Y-110490000D03*
D21*
X156733000Y-106695000D02*
X155250000Y-106695000D01*
X157480000Y-107442000D02*
X156733000Y-106695000D01*
D22*
X160274000Y-102616000D02*
X160274000Y-102362000D01*
X172212000Y-103124000D02*
X173990000Y-101600000D01*
X172212000Y-104140000D02*
X172212000Y-103124000D01*
X170434000Y-105918000D02*
X172212000Y-104140000D01*
X161544000Y-105918000D02*
X170434000Y-105918000D01*
X160274000Y-104648000D02*
X161544000Y-105918000D01*
X160274000Y-102616000D02*
X160274000Y-104648000D01*
X157107000Y-99195000D02*
X155250000Y-99195000D01*
X160274000Y-102362000D02*
X157107000Y-99195000D01*
X159385000Y-103505000D02*
X159385000Y-103251000D01*
X171450000Y-106680000D02*
X172720000Y-105410000D01*
X160020000Y-106680000D02*
X171450000Y-106680000D01*
X159385000Y-106045000D02*
X160020000Y-106680000D01*
X159385000Y-103505000D02*
X159385000Y-106045000D01*
X157829000Y-101695000D02*
X155250000Y-101695000D01*
X159385000Y-103251000D02*
X157829000Y-101695000D01*
X155250000Y-109195000D02*
X158775000Y-109195000D01*
X160020000Y-107950000D02*
X171450000Y-107950000D01*
X159410000Y-108560000D02*
X160020000Y-107950000D01*
X158775000Y-109195000D02*
X159410000Y-108560000D01*
X155250000Y-114095000D02*
X157050000Y-114095000D01*
X161925000Y-109220000D02*
X171450000Y-109220000D01*
X171450000Y-109220000D02*
X172720000Y-107950000D01*
X157685000Y-113460000D02*
X161290000Y-109855000D01*
X161290000Y-109855000D02*
X161925000Y-109220000D01*
X157050000Y-114095000D02*
X157685000Y-113460000D01*
X172720000Y-107950000D02*
X173990000Y-106680000D01*
X173990000Y-104775000D02*
X173355000Y-104140000D01*
X173990000Y-106680000D02*
X173990000Y-104775000D01*
X178435000Y-108585000D02*
X178435000Y-104140000D01*
X178435000Y-110490000D02*
X178435000Y-108585000D01*
X134040000Y-120650000D02*
X134040000Y-116205000D01*
X134040000Y-116205000D02*
X134040000Y-112650000D01*
X179705000Y-110490000D02*
X179705000Y-108585000D01*
X179705000Y-108585000D02*
X179705000Y-103505000D01*
X179705000Y-103505000D02*
X179070000Y-102870000D01*
X179070000Y-102870000D02*
X177165000Y-102870000D01*
X141660000Y-112650000D02*
X141660000Y-118110000D01*
X141660000Y-118110000D02*
X141660000Y-120650000D01*
X175260000Y-102235000D02*
X175260000Y-101600000D01*
X170942000Y-102870000D02*
X168656000Y-102870000D01*
X173228000Y-100584000D02*
X170942000Y-102870000D01*
X174244000Y-100584000D02*
X173228000Y-100584000D01*
X175260000Y-101600000D02*
X174244000Y-100584000D01*
X177165000Y-109220000D02*
X177165000Y-104140000D01*
X153035000Y-102870000D02*
X153035000Y-99060000D01*
X153035000Y-112395000D02*
X153035000Y-102870000D01*
X151130000Y-114300000D02*
X153035000Y-112395000D01*
X151765000Y-104775000D02*
X151765000Y-98425000D01*
X152400000Y-105410000D02*
X151765000Y-104775000D01*
X152400000Y-110490000D02*
X152400000Y-105410000D01*
X151130000Y-111760000D02*
X152400000Y-110490000D01*
X150622000Y-97282000D02*
X150622000Y-106934000D01*
X149606000Y-116078000D02*
X150368000Y-116840000D01*
X149606000Y-107950000D02*
X149606000Y-116078000D01*
X150622000Y-106934000D02*
X149606000Y-107950000D01*
X150368000Y-116840000D02*
X151130000Y-116840000D01*
X151130000Y-116840000D02*
X150495000Y-116840000D01*
X144780000Y-96774000D02*
X144526000Y-97028000D01*
X144526000Y-97028000D02*
X142240000Y-97028000D01*
X142494000Y-104648000D02*
X142240000Y-104648000D01*
X142240000Y-104648000D02*
X132132000Y-104648000D01*
X132132000Y-104648000D02*
X132080000Y-104700000D01*
X142546000Y-104700000D02*
X147080000Y-104700000D01*
X142494000Y-104648000D02*
X142546000Y-104700000D01*
X141478000Y-95250000D02*
X143764000Y-95250000D01*
X144018000Y-94996000D02*
X146776000Y-94996000D01*
X143764000Y-95250000D02*
X144018000Y-94996000D01*
X146776000Y-94996000D02*
X147080000Y-95300000D01*
X141428000Y-95300000D02*
X132080000Y-95300000D01*
X141478000Y-95250000D02*
X141428000Y-95300000D01*
X144526000Y-99060000D02*
X141478000Y-99060000D01*
X144780000Y-93472000D02*
X144526000Y-93472000D01*
X143764000Y-92710000D02*
X137160000Y-92710000D01*
X144526000Y-93472000D02*
X143764000Y-92710000D01*
X132080000Y-100940000D02*
X134976000Y-100940000D01*
X135128000Y-101092000D02*
X136906000Y-101092000D01*
X134976000Y-100940000D02*
X135128000Y-101092000D01*
X132080000Y-99060000D02*
X136906000Y-99060000D01*
X132080000Y-97180000D02*
X136042000Y-97180000D01*
X136042000Y-97180000D02*
X136144000Y-97282000D01*
X132080000Y-102820000D02*
X136094000Y-102820000D01*
X144272000Y-96266000D02*
X144780000Y-95758000D01*
X136144000Y-96266000D02*
X144272000Y-96266000D01*
X136144000Y-96266000D02*
X136144000Y-96266000D01*
X136094000Y-102820000D02*
X136144000Y-102870000D01*
X135890000Y-91948000D02*
X146418000Y-91948000D01*
X135382000Y-92456000D02*
X135890000Y-91948000D01*
X146418000Y-92202000D02*
X147080000Y-91540000D01*
X132080000Y-106580000D02*
X135228000Y-106580000D01*
X135382000Y-100330000D02*
X144526000Y-100330000D01*
X135228000Y-106580000D02*
X135382000Y-106426000D01*
X144272000Y-101854000D02*
X134620000Y-101854000D01*
X144526000Y-102108000D02*
X144272000Y-101854000D01*
X132080000Y-108460000D02*
X134364000Y-108460000D01*
X145542000Y-94234000D02*
X146356000Y-93420000D01*
X145034000Y-94234000D02*
X145542000Y-94234000D01*
X144272000Y-94234000D02*
X145034000Y-94234000D01*
X134620000Y-94234000D02*
X144272000Y-94234000D01*
X134364000Y-108460000D02*
X134366000Y-108458000D01*
X146356000Y-93420000D02*
X147080000Y-93420000D01*
X140718000Y-108460000D02*
X147080000Y-108460000D01*
X140208000Y-107950000D02*
X140718000Y-108460000D01*
X132080000Y-93420000D02*
X140156000Y-93420000D01*
X144526000Y-103886000D02*
X144272000Y-103886000D01*
X140208000Y-103886000D02*
X144526000Y-103886000D01*
X140156000Y-93420000D02*
X140208000Y-93472000D01*
X132080000Y-91540000D02*
X134520000Y-91540000D01*
X144934000Y-106580000D02*
X147080000Y-106580000D01*
X144526000Y-106172000D02*
X144934000Y-106580000D01*
X138938000Y-106172000D02*
X144526000Y-106172000D01*
X134874000Y-91186000D02*
X138938000Y-91186000D01*
X134520000Y-91540000D02*
X134874000Y-91186000D01*
X147080000Y-99060000D02*
X148336000Y-99060000D01*
X148336000Y-99060000D02*
X149098000Y-99822000D01*
X149098000Y-99822000D02*
X149098000Y-101854000D01*
X149098000Y-101854000D02*
X148132000Y-102820000D01*
X148132000Y-102820000D02*
X147080000Y-102820000D01*
X143814000Y-102820000D02*
X147080000Y-102820000D01*
X143764000Y-102870000D02*
X143814000Y-102820000D01*
X145186000Y-100940000D02*
X147080000Y-100940000D01*
X145034000Y-101092000D02*
X145186000Y-100940000D01*
X143002000Y-101092000D02*
X145034000Y-101092000D01*
X145288000Y-97790000D02*
X145898000Y-97180000D01*
X143002000Y-97790000D02*
X145288000Y-97790000D01*
X145898000Y-97180000D02*
X147080000Y-97180000D01*
X156718000Y-117602000D02*
X156210000Y-118110000D01*
X156210000Y-118110000D02*
X155435000Y-118110000D01*
X155435000Y-118110000D02*
X155250000Y-118295000D01*
X163830000Y-110490000D02*
X172085000Y-110490000D01*
X160655000Y-113665000D02*
X163830000Y-110490000D01*
X160655000Y-116840000D02*
X160655000Y-113665000D01*
X160020000Y-117475000D02*
X160655000Y-116840000D01*
X156845000Y-117475000D02*
X160020000Y-117475000D01*
X156660000Y-117660000D02*
X156718000Y-117602000D01*
X156718000Y-117602000D02*
X156845000Y-117475000D01*
D23*
G36*
X170867654Y-91145000D02*
X170893802Y-91283966D01*
X170975931Y-91411599D01*
X171101246Y-91497223D01*
X171250000Y-91527346D01*
X176250000Y-91527346D01*
X176388966Y-91501198D01*
X176516599Y-91419069D01*
X176575919Y-91332250D01*
X178367000Y-91332250D01*
X178367000Y-92170911D01*
X178463368Y-92403565D01*
X178641434Y-92581631D01*
X178874088Y-92678000D01*
X179462750Y-92678000D01*
X179621000Y-92519750D01*
X179621000Y-91174000D01*
X178525250Y-91174000D01*
X178367000Y-91332250D01*
X176575919Y-91332250D01*
X176602223Y-91293754D01*
X176632346Y-91145000D01*
X176632346Y-90295000D01*
X178367000Y-90295000D01*
X178367000Y-90757750D01*
X178525250Y-90916000D01*
X179621000Y-90916000D01*
X179621000Y-90896000D01*
X179879000Y-90896000D01*
X179879000Y-90916000D01*
X179899000Y-90916000D01*
X179899000Y-91174000D01*
X179879000Y-91174000D01*
X179879000Y-92519750D01*
X180037250Y-92678000D01*
X180215000Y-92678000D01*
X180215000Y-103429589D01*
X180190037Y-103304091D01*
X180076231Y-103133769D01*
X179441231Y-102498769D01*
X179270909Y-102384963D01*
X179070000Y-102345000D01*
X177594677Y-102345000D01*
X177547856Y-102298097D01*
X177299855Y-102195117D01*
X177031323Y-102194883D01*
X176783143Y-102297429D01*
X176593097Y-102487144D01*
X176490117Y-102735145D01*
X176489883Y-103003677D01*
X176592429Y-103251857D01*
X176782144Y-103441903D01*
X176934165Y-103505028D01*
X176783143Y-103567429D01*
X176593097Y-103757144D01*
X176490117Y-104005145D01*
X176489883Y-104273677D01*
X176592429Y-104521857D01*
X176640000Y-104569511D01*
X176640000Y-108790323D01*
X176593097Y-108837144D01*
X176490117Y-109085145D01*
X176489883Y-109353677D01*
X176592429Y-109601857D01*
X176782144Y-109791903D01*
X177030145Y-109894883D01*
X177298677Y-109895117D01*
X177546857Y-109792571D01*
X177736903Y-109602856D01*
X177839883Y-109354855D01*
X177840117Y-109086323D01*
X177737571Y-108838143D01*
X177690000Y-108790489D01*
X177690000Y-104569677D01*
X177736903Y-104522856D01*
X177800028Y-104370835D01*
X177862429Y-104521857D01*
X177910000Y-104569511D01*
X177910000Y-110060323D01*
X177863097Y-110107144D01*
X177760117Y-110355145D01*
X177759883Y-110623677D01*
X177862429Y-110871857D01*
X178052144Y-111061903D01*
X178300145Y-111164883D01*
X178568677Y-111165117D01*
X178816857Y-111062571D01*
X179006903Y-110872856D01*
X179070028Y-110720835D01*
X179132429Y-110871857D01*
X179322144Y-111061903D01*
X179570145Y-111164883D01*
X179838677Y-111165117D01*
X180086857Y-111062571D01*
X180215000Y-110934651D01*
X180215000Y-121795000D01*
X147428000Y-121795000D01*
X147428000Y-120937250D01*
X147269750Y-120779000D01*
X146289000Y-120779000D01*
X146289000Y-120799000D01*
X146031000Y-120799000D01*
X146031000Y-120779000D01*
X145050250Y-120779000D01*
X144892000Y-120937250D01*
X144892000Y-121795000D01*
X142677346Y-121795000D01*
X142677346Y-119380000D01*
X142653655Y-119254089D01*
X144892000Y-119254089D01*
X144892000Y-120362750D01*
X145050250Y-120521000D01*
X146031000Y-120521000D01*
X146031000Y-118905250D01*
X146289000Y-118905250D01*
X146289000Y-120521000D01*
X147269750Y-120521000D01*
X147428000Y-120362750D01*
X147428000Y-119738525D01*
X149690990Y-119738525D01*
X149858943Y-120144024D01*
X150248076Y-120572279D01*
X150771474Y-120819020D01*
X151001000Y-120699139D01*
X151001000Y-119509000D01*
X151259000Y-119509000D01*
X151259000Y-120699139D01*
X151488526Y-120819020D01*
X152011924Y-120572279D01*
X152401057Y-120144024D01*
X152569010Y-119738525D01*
X152565715Y-119732250D01*
X165867000Y-119732250D01*
X165867000Y-120570911D01*
X165963368Y-120803565D01*
X166141434Y-120981631D01*
X166374088Y-121078000D01*
X166962750Y-121078000D01*
X167121000Y-120919750D01*
X167121000Y-119574000D01*
X167379000Y-119574000D01*
X167379000Y-120919750D01*
X167537250Y-121078000D01*
X168125912Y-121078000D01*
X168358566Y-120981631D01*
X168536632Y-120803565D01*
X168633000Y-120570911D01*
X168633000Y-119732250D01*
X168474750Y-119574000D01*
X167379000Y-119574000D01*
X167121000Y-119574000D01*
X166025250Y-119574000D01*
X165867000Y-119732250D01*
X152565715Y-119732250D01*
X152467363Y-119545000D01*
X170867654Y-119545000D01*
X170867654Y-120545000D01*
X170893802Y-120683966D01*
X170975931Y-120811599D01*
X171101246Y-120897223D01*
X171250000Y-120927346D01*
X176250000Y-120927346D01*
X176388966Y-120901198D01*
X176516599Y-120819069D01*
X176602223Y-120693754D01*
X176632346Y-120545000D01*
X176632346Y-119732250D01*
X177367000Y-119732250D01*
X177367000Y-120570911D01*
X177463368Y-120803565D01*
X177641434Y-120981631D01*
X177874088Y-121078000D01*
X178462750Y-121078000D01*
X178621000Y-120919750D01*
X178621000Y-119574000D01*
X178879000Y-119574000D01*
X178879000Y-120919750D01*
X179037250Y-121078000D01*
X179625912Y-121078000D01*
X179858566Y-120981631D01*
X180036632Y-120803565D01*
X180133000Y-120570911D01*
X180133000Y-119732250D01*
X179974750Y-119574000D01*
X178879000Y-119574000D01*
X178621000Y-119574000D01*
X177525250Y-119574000D01*
X177367000Y-119732250D01*
X176632346Y-119732250D01*
X176632346Y-119545000D01*
X176606198Y-119406034D01*
X176524069Y-119278401D01*
X176398754Y-119192777D01*
X176250000Y-119162654D01*
X171250000Y-119162654D01*
X171111034Y-119188802D01*
X170983401Y-119270931D01*
X170897777Y-119396246D01*
X170867654Y-119545000D01*
X152467363Y-119545000D01*
X152448454Y-119509000D01*
X151259000Y-119509000D01*
X151001000Y-119509000D01*
X149811546Y-119509000D01*
X149690990Y-119738525D01*
X147428000Y-119738525D01*
X147428000Y-119254089D01*
X147331632Y-119021435D01*
X147153566Y-118843369D01*
X146920912Y-118747000D01*
X146447250Y-118747000D01*
X146289000Y-118905250D01*
X146031000Y-118905250D01*
X145872750Y-118747000D01*
X145399088Y-118747000D01*
X145166434Y-118843369D01*
X144988368Y-119021435D01*
X144892000Y-119254089D01*
X142653655Y-119254089D01*
X142651198Y-119241034D01*
X142569069Y-119113401D01*
X142443754Y-119027777D01*
X142295000Y-118997654D01*
X142185000Y-118997654D01*
X142185000Y-118539677D01*
X142231903Y-118492856D01*
X142334883Y-118244855D01*
X142335117Y-117976323D01*
X142232571Y-117728143D01*
X142185000Y-117680489D01*
X142185000Y-114302346D01*
X142295000Y-114302346D01*
X142433966Y-114276198D01*
X142561599Y-114194069D01*
X142647223Y-114068754D01*
X142677346Y-113920000D01*
X142677346Y-112937250D01*
X144892000Y-112937250D01*
X144892000Y-114045911D01*
X144988368Y-114278565D01*
X145166434Y-114456631D01*
X145399088Y-114553000D01*
X145872750Y-114553000D01*
X146031000Y-114394750D01*
X146031000Y-112779000D01*
X146289000Y-112779000D01*
X146289000Y-114394750D01*
X146447250Y-114553000D01*
X146920912Y-114553000D01*
X147153566Y-114456631D01*
X147331632Y-114278565D01*
X147428000Y-114045911D01*
X147428000Y-112937250D01*
X147269750Y-112779000D01*
X146289000Y-112779000D01*
X146031000Y-112779000D01*
X145050250Y-112779000D01*
X144892000Y-112937250D01*
X142677346Y-112937250D01*
X142677346Y-111380000D01*
X142653655Y-111254089D01*
X144892000Y-111254089D01*
X144892000Y-112362750D01*
X145050250Y-112521000D01*
X146031000Y-112521000D01*
X146031000Y-110905250D01*
X146289000Y-110905250D01*
X146289000Y-112521000D01*
X147269750Y-112521000D01*
X147428000Y-112362750D01*
X147428000Y-111254089D01*
X147331632Y-111021435D01*
X147153566Y-110843369D01*
X146920912Y-110747000D01*
X146447250Y-110747000D01*
X146289000Y-110905250D01*
X146031000Y-110905250D01*
X145872750Y-110747000D01*
X145399088Y-110747000D01*
X145166434Y-110843369D01*
X144988368Y-111021435D01*
X144892000Y-111254089D01*
X142653655Y-111254089D01*
X142651198Y-111241034D01*
X142569069Y-111113401D01*
X142443754Y-111027777D01*
X142295000Y-110997654D01*
X141025000Y-110997654D01*
X140886034Y-111023802D01*
X140758401Y-111105931D01*
X140672777Y-111231246D01*
X140642654Y-111380000D01*
X140642654Y-113920000D01*
X140668802Y-114058966D01*
X140750931Y-114186599D01*
X140876246Y-114272223D01*
X141025000Y-114302346D01*
X141135000Y-114302346D01*
X141135000Y-117680323D01*
X141088097Y-117727144D01*
X140985117Y-117975145D01*
X140984883Y-118243677D01*
X141087429Y-118491857D01*
X141135000Y-118539511D01*
X141135000Y-118997654D01*
X141025000Y-118997654D01*
X140886034Y-119023802D01*
X140758401Y-119105931D01*
X140672777Y-119231246D01*
X140642654Y-119380000D01*
X140642654Y-121795000D01*
X139808000Y-121795000D01*
X139808000Y-120937250D01*
X139649750Y-120779000D01*
X138669000Y-120779000D01*
X138669000Y-120799000D01*
X138411000Y-120799000D01*
X138411000Y-120779000D01*
X137430250Y-120779000D01*
X137272000Y-120937250D01*
X137272000Y-121795000D01*
X135057346Y-121795000D01*
X135057346Y-119380000D01*
X135033655Y-119254089D01*
X137272000Y-119254089D01*
X137272000Y-120362750D01*
X137430250Y-120521000D01*
X138411000Y-120521000D01*
X138411000Y-118905250D01*
X138669000Y-118905250D01*
X138669000Y-120521000D01*
X139649750Y-120521000D01*
X139808000Y-120362750D01*
X139808000Y-119254089D01*
X139711632Y-119021435D01*
X139533566Y-118843369D01*
X139300912Y-118747000D01*
X138827250Y-118747000D01*
X138669000Y-118905250D01*
X138411000Y-118905250D01*
X138252750Y-118747000D01*
X137779088Y-118747000D01*
X137546434Y-118843369D01*
X137368368Y-119021435D01*
X137272000Y-119254089D01*
X135033655Y-119254089D01*
X135031198Y-119241034D01*
X134949069Y-119113401D01*
X134823754Y-119027777D01*
X134675000Y-118997654D01*
X134565000Y-118997654D01*
X134565000Y-116634677D01*
X134611903Y-116587856D01*
X134714883Y-116339855D01*
X134715117Y-116071323D01*
X134612571Y-115823143D01*
X134565000Y-115775489D01*
X134565000Y-114302346D01*
X134675000Y-114302346D01*
X134813966Y-114276198D01*
X134941599Y-114194069D01*
X135027223Y-114068754D01*
X135057346Y-113920000D01*
X135057346Y-112937250D01*
X137272000Y-112937250D01*
X137272000Y-114045911D01*
X137368368Y-114278565D01*
X137546434Y-114456631D01*
X137779088Y-114553000D01*
X138252750Y-114553000D01*
X138411000Y-114394750D01*
X138411000Y-112779000D01*
X138669000Y-112779000D01*
X138669000Y-114394750D01*
X138827250Y-114553000D01*
X139300912Y-114553000D01*
X139533566Y-114456631D01*
X139711632Y-114278565D01*
X139808000Y-114045911D01*
X139808000Y-112937250D01*
X139649750Y-112779000D01*
X138669000Y-112779000D01*
X138411000Y-112779000D01*
X137430250Y-112779000D01*
X137272000Y-112937250D01*
X135057346Y-112937250D01*
X135057346Y-111380000D01*
X135033655Y-111254089D01*
X137272000Y-111254089D01*
X137272000Y-112362750D01*
X137430250Y-112521000D01*
X138411000Y-112521000D01*
X138411000Y-110905250D01*
X138669000Y-110905250D01*
X138669000Y-112521000D01*
X139649750Y-112521000D01*
X139808000Y-112362750D01*
X139808000Y-111254089D01*
X139711632Y-111021435D01*
X139533566Y-110843369D01*
X139300912Y-110747000D01*
X138827250Y-110747000D01*
X138669000Y-110905250D01*
X138411000Y-110905250D01*
X138252750Y-110747000D01*
X137779088Y-110747000D01*
X137546434Y-110843369D01*
X137368368Y-111021435D01*
X137272000Y-111254089D01*
X135033655Y-111254089D01*
X135031198Y-111241034D01*
X134949069Y-111113401D01*
X134823754Y-111027777D01*
X134675000Y-110997654D01*
X133405000Y-110997654D01*
X133266034Y-111023802D01*
X133138401Y-111105931D01*
X133052777Y-111231246D01*
X133022654Y-111380000D01*
X133022654Y-113920000D01*
X133048802Y-114058966D01*
X133130931Y-114186599D01*
X133256246Y-114272223D01*
X133405000Y-114302346D01*
X133515000Y-114302346D01*
X133515000Y-115775323D01*
X133468097Y-115822144D01*
X133365117Y-116070145D01*
X133364883Y-116338677D01*
X133467429Y-116586857D01*
X133515000Y-116634511D01*
X133515000Y-118997654D01*
X133405000Y-118997654D01*
X133266034Y-119023802D01*
X133138401Y-119105931D01*
X133052777Y-119231246D01*
X133022654Y-119380000D01*
X133022654Y-121795000D01*
X130935000Y-121795000D01*
X130935000Y-109397086D01*
X131104662Y-109510451D01*
X131539773Y-109597000D01*
X132620227Y-109597000D01*
X133055338Y-109510451D01*
X133424207Y-109263980D01*
X133610616Y-108985000D01*
X133938319Y-108985000D01*
X133983144Y-109029903D01*
X134231145Y-109132883D01*
X134499677Y-109133117D01*
X134747857Y-109030571D01*
X134937903Y-108840856D01*
X135040883Y-108592855D01*
X135041117Y-108324323D01*
X134938571Y-108076143D01*
X134748856Y-107886097D01*
X134500855Y-107783117D01*
X134232323Y-107782883D01*
X133984143Y-107885429D01*
X133934486Y-107935000D01*
X133610616Y-107935000D01*
X133424207Y-107656020D01*
X133220639Y-107520000D01*
X133424207Y-107383980D01*
X133610616Y-107105000D01*
X135228000Y-107105000D01*
X135248691Y-107100884D01*
X135515677Y-107101117D01*
X135763857Y-106998571D01*
X135953903Y-106808856D01*
X136056883Y-106560855D01*
X136057117Y-106292323D01*
X135954571Y-106044143D01*
X135764856Y-105854097D01*
X135516855Y-105751117D01*
X135248323Y-105750883D01*
X135000143Y-105853429D01*
X134810097Y-106043144D01*
X134805174Y-106055000D01*
X133610616Y-106055000D01*
X133424207Y-105776020D01*
X133220639Y-105640000D01*
X133424207Y-105503980D01*
X133645361Y-105173000D01*
X141810323Y-105173000D01*
X141857144Y-105219903D01*
X142105145Y-105322883D01*
X142373677Y-105323117D01*
X142611138Y-105225000D01*
X145549384Y-105225000D01*
X145735793Y-105503980D01*
X145939361Y-105640000D01*
X145735793Y-105776020D01*
X145549384Y-106055000D01*
X145201102Y-106055000D01*
X145201117Y-106038323D01*
X145098571Y-105790143D01*
X144908856Y-105600097D01*
X144660855Y-105497117D01*
X144392323Y-105496883D01*
X144144143Y-105599429D01*
X144096489Y-105647000D01*
X139367677Y-105647000D01*
X139320856Y-105600097D01*
X139072855Y-105497117D01*
X138804323Y-105496883D01*
X138556143Y-105599429D01*
X138366097Y-105789144D01*
X138263117Y-106037145D01*
X138262883Y-106305677D01*
X138365429Y-106553857D01*
X138555144Y-106743903D01*
X138803145Y-106846883D01*
X139071677Y-106847117D01*
X139319857Y-106744571D01*
X139367511Y-106697000D01*
X144096323Y-106697000D01*
X144143144Y-106743903D01*
X144391145Y-106846883D01*
X144458480Y-106846942D01*
X144562769Y-106951231D01*
X144733091Y-107065037D01*
X144934000Y-107105000D01*
X145549384Y-107105000D01*
X145735793Y-107383980D01*
X145939361Y-107520000D01*
X145735793Y-107656020D01*
X145549384Y-107935000D01*
X140935462Y-107935000D01*
X140883059Y-107882597D01*
X140883117Y-107816323D01*
X140780571Y-107568143D01*
X140590856Y-107378097D01*
X140342855Y-107275117D01*
X140074323Y-107274883D01*
X139826143Y-107377429D01*
X139636097Y-107567144D01*
X139533117Y-107815145D01*
X139532883Y-108083677D01*
X139635429Y-108331857D01*
X139825144Y-108521903D01*
X140073145Y-108624883D01*
X140140480Y-108624942D01*
X140346769Y-108831231D01*
X140517091Y-108945037D01*
X140718000Y-108985000D01*
X145549384Y-108985000D01*
X145735793Y-109263980D01*
X146104662Y-109510451D01*
X146539773Y-109597000D01*
X147620227Y-109597000D01*
X148055338Y-109510451D01*
X148424207Y-109263980D01*
X148670678Y-108895111D01*
X148757227Y-108460000D01*
X148670678Y-108024889D01*
X148620639Y-107950000D01*
X149081000Y-107950000D01*
X149081000Y-116078000D01*
X149120963Y-116278909D01*
X149234769Y-116449231D01*
X149944434Y-117158896D01*
X149974249Y-117308787D01*
X150239795Y-117706206D01*
X150637214Y-117971752D01*
X150685729Y-117981402D01*
X150248076Y-118187721D01*
X149858943Y-118615976D01*
X149690990Y-119021475D01*
X149811546Y-119251000D01*
X151001000Y-119251000D01*
X151001000Y-119231000D01*
X151259000Y-119231000D01*
X151259000Y-119251000D01*
X152448454Y-119251000D01*
X152569010Y-119021475D01*
X152401057Y-118615976D01*
X152011924Y-118187721D01*
X151574271Y-117981402D01*
X151622786Y-117971752D01*
X151962145Y-117745000D01*
X153867654Y-117745000D01*
X153867654Y-118845000D01*
X153893802Y-118983966D01*
X153975931Y-119111599D01*
X154101246Y-119197223D01*
X154250000Y-119227346D01*
X156250000Y-119227346D01*
X156388966Y-119201198D01*
X156516599Y-119119069D01*
X156602223Y-118993754D01*
X156632346Y-118845000D01*
X156632346Y-118430116D01*
X156743373Y-118319089D01*
X165867000Y-118319089D01*
X165867000Y-119157750D01*
X166025250Y-119316000D01*
X167121000Y-119316000D01*
X167121000Y-117970250D01*
X167379000Y-117970250D01*
X167379000Y-119316000D01*
X168474750Y-119316000D01*
X168633000Y-119157750D01*
X168633000Y-118319089D01*
X177367000Y-118319089D01*
X177367000Y-119157750D01*
X177525250Y-119316000D01*
X178621000Y-119316000D01*
X178621000Y-117970250D01*
X178879000Y-117970250D01*
X178879000Y-119316000D01*
X179974750Y-119316000D01*
X180133000Y-119157750D01*
X180133000Y-118319089D01*
X180036632Y-118086435D01*
X179858566Y-117908369D01*
X179625912Y-117812000D01*
X179037250Y-117812000D01*
X178879000Y-117970250D01*
X178621000Y-117970250D01*
X178462750Y-117812000D01*
X177874088Y-117812000D01*
X177641434Y-117908369D01*
X177463368Y-118086435D01*
X177367000Y-118319089D01*
X168633000Y-118319089D01*
X168536632Y-118086435D01*
X168358566Y-117908369D01*
X168125912Y-117812000D01*
X167537250Y-117812000D01*
X167379000Y-117970250D01*
X167121000Y-117970250D01*
X166962750Y-117812000D01*
X166374088Y-117812000D01*
X166141434Y-117908369D01*
X165963368Y-118086435D01*
X165867000Y-118319089D01*
X156743373Y-118319089D01*
X157062462Y-118000000D01*
X160020000Y-118000000D01*
X160220909Y-117960037D01*
X160391231Y-117846231D01*
X161026231Y-117211231D01*
X161140037Y-117040909D01*
X161180000Y-116840000D01*
X161180000Y-113882462D01*
X164047462Y-111015000D01*
X171655323Y-111015000D01*
X171702144Y-111061903D01*
X171950145Y-111164883D01*
X172218677Y-111165117D01*
X172466857Y-111062571D01*
X172656903Y-110872856D01*
X172759883Y-110624855D01*
X172760117Y-110356323D01*
X172657571Y-110108143D01*
X172467856Y-109918097D01*
X172219855Y-109815117D01*
X171951323Y-109814883D01*
X171703143Y-109917429D01*
X171655489Y-109965000D01*
X163830000Y-109965000D01*
X163629091Y-110004963D01*
X163458769Y-110118769D01*
X160283769Y-113293769D01*
X160169963Y-113464091D01*
X160130000Y-113665000D01*
X160130000Y-116622538D01*
X159802538Y-116950000D01*
X156845000Y-116950000D01*
X156644091Y-116989963D01*
X156473769Y-117103769D01*
X156214884Y-117362654D01*
X154250000Y-117362654D01*
X154111034Y-117388802D01*
X153983401Y-117470931D01*
X153897777Y-117596246D01*
X153867654Y-117745000D01*
X151962145Y-117745000D01*
X152020205Y-117706206D01*
X152285751Y-117308787D01*
X152378999Y-116840000D01*
X152285751Y-116371213D01*
X152020205Y-115973794D01*
X151622786Y-115708248D01*
X151153999Y-115615000D01*
X151106001Y-115615000D01*
X150637214Y-115708248D01*
X150242469Y-115972007D01*
X150131000Y-115860538D01*
X150131000Y-115003382D01*
X150239795Y-115166206D01*
X150637214Y-115431752D01*
X151106001Y-115525000D01*
X151153999Y-115525000D01*
X151622786Y-115431752D01*
X152020205Y-115166206D01*
X152285751Y-114768787D01*
X152378999Y-114300000D01*
X152294959Y-113877503D01*
X153406231Y-112766231D01*
X153520037Y-112595909D01*
X153560000Y-112395000D01*
X153560000Y-111982250D01*
X153617000Y-111982250D01*
X153617000Y-112370911D01*
X153713368Y-112603565D01*
X153891434Y-112781631D01*
X154124088Y-112878000D01*
X154962750Y-112878000D01*
X155121000Y-112719750D01*
X155121000Y-111824000D01*
X155379000Y-111824000D01*
X155379000Y-112719750D01*
X155537250Y-112878000D01*
X156375912Y-112878000D01*
X156608566Y-112781631D01*
X156786632Y-112603565D01*
X156883000Y-112370911D01*
X156883000Y-111982250D01*
X156724750Y-111824000D01*
X155379000Y-111824000D01*
X155121000Y-111824000D01*
X153775250Y-111824000D01*
X153617000Y-111982250D01*
X153560000Y-111982250D01*
X153560000Y-111019089D01*
X153617000Y-111019089D01*
X153617000Y-111407750D01*
X153775250Y-111566000D01*
X155121000Y-111566000D01*
X155121000Y-110670250D01*
X155379000Y-110670250D01*
X155379000Y-111566000D01*
X156724750Y-111566000D01*
X156883000Y-111407750D01*
X156883000Y-111019089D01*
X156786632Y-110786435D01*
X156608566Y-110608369D01*
X156375912Y-110512000D01*
X155537250Y-110512000D01*
X155379000Y-110670250D01*
X155121000Y-110670250D01*
X154962750Y-110512000D01*
X154124088Y-110512000D01*
X153891434Y-110608369D01*
X153713368Y-110786435D01*
X153617000Y-111019089D01*
X153560000Y-111019089D01*
X153560000Y-106145000D01*
X153867654Y-106145000D01*
X153867654Y-107245000D01*
X153893802Y-107383966D01*
X153975931Y-107511599D01*
X154101246Y-107597223D01*
X154250000Y-107627346D01*
X156250000Y-107627346D01*
X156388966Y-107601198D01*
X156516599Y-107519069D01*
X156580160Y-107426044D01*
X156704905Y-107550788D01*
X156704866Y-107595481D01*
X156822604Y-107880429D01*
X157040425Y-108098630D01*
X157325167Y-108216865D01*
X157633481Y-108217134D01*
X157918429Y-108099396D01*
X158136630Y-107881575D01*
X158254865Y-107596833D01*
X158255134Y-107288519D01*
X158137396Y-107003571D01*
X157919575Y-106785370D01*
X157634833Y-106667135D01*
X157588978Y-106667095D01*
X157174942Y-106253058D01*
X156972177Y-106117575D01*
X156733000Y-106070000D01*
X156618234Y-106070000D01*
X156606198Y-106006034D01*
X156524069Y-105878401D01*
X156398754Y-105792777D01*
X156250000Y-105762654D01*
X154250000Y-105762654D01*
X154111034Y-105788802D01*
X153983401Y-105870931D01*
X153897777Y-105996246D01*
X153867654Y-106145000D01*
X153560000Y-106145000D01*
X153560000Y-104482250D01*
X153617000Y-104482250D01*
X153617000Y-104870911D01*
X153713368Y-105103565D01*
X153891434Y-105281631D01*
X154124088Y-105378000D01*
X154962750Y-105378000D01*
X155121000Y-105219750D01*
X155121000Y-104324000D01*
X155379000Y-104324000D01*
X155379000Y-105219750D01*
X155537250Y-105378000D01*
X156375912Y-105378000D01*
X156608566Y-105281631D01*
X156786632Y-105103565D01*
X156883000Y-104870911D01*
X156883000Y-104482250D01*
X156724750Y-104324000D01*
X155379000Y-104324000D01*
X155121000Y-104324000D01*
X153775250Y-104324000D01*
X153617000Y-104482250D01*
X153560000Y-104482250D01*
X153560000Y-103519089D01*
X153617000Y-103519089D01*
X153617000Y-103907750D01*
X153775250Y-104066000D01*
X155121000Y-104066000D01*
X155121000Y-103170250D01*
X155379000Y-103170250D01*
X155379000Y-104066000D01*
X156724750Y-104066000D01*
X156883000Y-103907750D01*
X156883000Y-103519089D01*
X156786632Y-103286435D01*
X156608566Y-103108369D01*
X156375912Y-103012000D01*
X155537250Y-103012000D01*
X155379000Y-103170250D01*
X155121000Y-103170250D01*
X154962750Y-103012000D01*
X154124088Y-103012000D01*
X153891434Y-103108369D01*
X153713368Y-103286435D01*
X153617000Y-103519089D01*
X153560000Y-103519089D01*
X153560000Y-99489677D01*
X153606903Y-99442856D01*
X153709883Y-99194855D01*
X153710117Y-98926323D01*
X153607571Y-98678143D01*
X153574486Y-98645000D01*
X153867654Y-98645000D01*
X153867654Y-99745000D01*
X153893802Y-99883966D01*
X153975931Y-100011599D01*
X154101246Y-100097223D01*
X154250000Y-100127346D01*
X156250000Y-100127346D01*
X156388966Y-100101198D01*
X156516599Y-100019069D01*
X156602223Y-99893754D01*
X156632346Y-99745000D01*
X156632346Y-99720000D01*
X156889538Y-99720000D01*
X159749000Y-102579462D01*
X159749000Y-102872538D01*
X158200231Y-101323769D01*
X158029909Y-101209963D01*
X157829000Y-101170000D01*
X156632346Y-101170000D01*
X156632346Y-101145000D01*
X156606198Y-101006034D01*
X156524069Y-100878401D01*
X156398754Y-100792777D01*
X156250000Y-100762654D01*
X154250000Y-100762654D01*
X154111034Y-100788802D01*
X153983401Y-100870931D01*
X153897777Y-100996246D01*
X153867654Y-101145000D01*
X153867654Y-102245000D01*
X153893802Y-102383966D01*
X153975931Y-102511599D01*
X154101246Y-102597223D01*
X154250000Y-102627346D01*
X156250000Y-102627346D01*
X156388966Y-102601198D01*
X156516599Y-102519069D01*
X156602223Y-102393754D01*
X156632346Y-102245000D01*
X156632346Y-102220000D01*
X157611538Y-102220000D01*
X158860000Y-103468462D01*
X158860000Y-106045000D01*
X158899963Y-106245909D01*
X159013769Y-106416231D01*
X159648769Y-107051231D01*
X159819091Y-107165037D01*
X160020000Y-107205000D01*
X171450000Y-107205000D01*
X171650909Y-107165037D01*
X171821231Y-107051231D01*
X172787403Y-106085059D01*
X172853677Y-106085117D01*
X173101857Y-105982571D01*
X173291903Y-105792856D01*
X173394883Y-105544855D01*
X173395117Y-105276323D01*
X173292571Y-105028143D01*
X173102856Y-104838097D01*
X172854855Y-104735117D01*
X172586323Y-104734883D01*
X172338143Y-104837429D01*
X172148097Y-105027144D01*
X172045117Y-105275145D01*
X172045058Y-105342480D01*
X171232538Y-106155000D01*
X170939462Y-106155000D01*
X172583231Y-104511231D01*
X172697037Y-104340909D01*
X172700490Y-104323550D01*
X172782429Y-104521857D01*
X172972144Y-104711903D01*
X173220145Y-104814883D01*
X173287480Y-104814942D01*
X173465000Y-104992462D01*
X173465000Y-106462538D01*
X172652597Y-107274941D01*
X172586323Y-107274883D01*
X172338143Y-107377429D01*
X172148097Y-107567144D01*
X172084972Y-107719165D01*
X172022571Y-107568143D01*
X171832856Y-107378097D01*
X171584855Y-107275117D01*
X171316323Y-107274883D01*
X171068143Y-107377429D01*
X171020489Y-107425000D01*
X160020000Y-107425000D01*
X159819091Y-107464963D01*
X159648769Y-107578769D01*
X158557538Y-108670000D01*
X156632346Y-108670000D01*
X156632346Y-108645000D01*
X156606198Y-108506034D01*
X156524069Y-108378401D01*
X156398754Y-108292777D01*
X156250000Y-108262654D01*
X154250000Y-108262654D01*
X154111034Y-108288802D01*
X153983401Y-108370931D01*
X153897777Y-108496246D01*
X153867654Y-108645000D01*
X153867654Y-109745000D01*
X153893802Y-109883966D01*
X153975931Y-110011599D01*
X154101246Y-110097223D01*
X154250000Y-110127346D01*
X156250000Y-110127346D01*
X156388966Y-110101198D01*
X156516599Y-110019069D01*
X156602223Y-109893754D01*
X156632346Y-109745000D01*
X156632346Y-109720000D01*
X158775000Y-109720000D01*
X158975909Y-109680037D01*
X159146231Y-109566231D01*
X160237462Y-108475000D01*
X171020323Y-108475000D01*
X171067144Y-108521903D01*
X171306320Y-108621218D01*
X171232538Y-108695000D01*
X161925000Y-108695000D01*
X161724091Y-108734963D01*
X161553769Y-108848769D01*
X156832538Y-113570000D01*
X156632346Y-113570000D01*
X156632346Y-113545000D01*
X156606198Y-113406034D01*
X156524069Y-113278401D01*
X156398754Y-113192777D01*
X156250000Y-113162654D01*
X154250000Y-113162654D01*
X154111034Y-113188802D01*
X153983401Y-113270931D01*
X153897777Y-113396246D01*
X153867654Y-113545000D01*
X153867654Y-114645000D01*
X153893802Y-114783966D01*
X153975931Y-114911599D01*
X154024274Y-114944630D01*
X153983401Y-114970931D01*
X153897777Y-115096246D01*
X153867654Y-115245000D01*
X153867654Y-116345000D01*
X153893802Y-116483966D01*
X153975931Y-116611599D01*
X154101246Y-116697223D01*
X154250000Y-116727346D01*
X156250000Y-116727346D01*
X156388966Y-116701198D01*
X156516599Y-116619069D01*
X156602223Y-116493754D01*
X156632346Y-116345000D01*
X156632346Y-115457893D01*
X157674814Y-115457893D01*
X157838128Y-115853143D01*
X158140267Y-116155809D01*
X158535231Y-116319813D01*
X158962893Y-116320186D01*
X159358143Y-116156872D01*
X159660809Y-115854733D01*
X159824813Y-115459769D01*
X159825186Y-115032107D01*
X159661872Y-114636857D01*
X159359733Y-114334191D01*
X158964769Y-114170187D01*
X158537107Y-114169814D01*
X158141857Y-114333128D01*
X157839191Y-114635267D01*
X157675187Y-115030231D01*
X157674814Y-115457893D01*
X156632346Y-115457893D01*
X156632346Y-115245000D01*
X156606198Y-115106034D01*
X156524069Y-114978401D01*
X156475726Y-114945370D01*
X156516599Y-114919069D01*
X156602223Y-114793754D01*
X156632346Y-114645000D01*
X156632346Y-114620000D01*
X157050000Y-114620000D01*
X157250909Y-114580037D01*
X157421231Y-114466231D01*
X162142462Y-109745000D01*
X171450000Y-109745000D01*
X171650909Y-109705037D01*
X171821231Y-109591231D01*
X172787403Y-108625059D01*
X172853677Y-108625117D01*
X173101857Y-108522571D01*
X173291903Y-108332856D01*
X173394883Y-108084855D01*
X173394942Y-108017520D01*
X174361231Y-107051231D01*
X174475037Y-106880909D01*
X174515000Y-106680000D01*
X174515000Y-104775000D01*
X174475037Y-104574091D01*
X174361231Y-104403769D01*
X174030059Y-104072597D01*
X174030117Y-104006323D01*
X173927571Y-103758143D01*
X173737856Y-103568097D01*
X173489855Y-103465117D01*
X173221323Y-103464883D01*
X172973143Y-103567429D01*
X172783097Y-103757144D01*
X172737000Y-103868157D01*
X172737000Y-103365466D01*
X174009190Y-102275017D01*
X174123677Y-102275117D01*
X174371857Y-102172571D01*
X174561903Y-101982856D01*
X174661218Y-101743680D01*
X174728925Y-101811387D01*
X174688097Y-101852144D01*
X174585117Y-102100145D01*
X174584883Y-102368677D01*
X174687429Y-102616857D01*
X174877144Y-102806903D01*
X175125145Y-102909883D01*
X175393677Y-102910117D01*
X175641857Y-102807571D01*
X175831903Y-102617856D01*
X175934883Y-102369855D01*
X175935117Y-102101323D01*
X175832571Y-101853143D01*
X175785000Y-101805489D01*
X175785000Y-101600000D01*
X175745037Y-101399091D01*
X175631231Y-101228769D01*
X174615231Y-100212769D01*
X174444909Y-100098963D01*
X174244000Y-100059000D01*
X173228000Y-100059000D01*
X173027091Y-100098963D01*
X172856769Y-100212769D01*
X170724538Y-102345000D01*
X169085677Y-102345000D01*
X169038856Y-102298097D01*
X168790855Y-102195117D01*
X168522323Y-102194883D01*
X168274143Y-102297429D01*
X168084097Y-102487144D01*
X167981117Y-102735145D01*
X167980883Y-103003677D01*
X168083429Y-103251857D01*
X168273144Y-103441903D01*
X168521145Y-103544883D01*
X168789677Y-103545117D01*
X169037857Y-103442571D01*
X169085511Y-103395000D01*
X170942000Y-103395000D01*
X171142909Y-103355037D01*
X171313231Y-103241231D01*
X173445462Y-101109000D01*
X173526430Y-101109000D01*
X173418097Y-101217144D01*
X173315117Y-101465145D01*
X173315098Y-101487021D01*
X171870335Y-102725390D01*
X171857733Y-102741434D01*
X171840769Y-102752769D01*
X171794852Y-102821488D01*
X171743801Y-102886482D01*
X171738298Y-102906127D01*
X171726963Y-102923091D01*
X171710840Y-103004149D01*
X171688546Y-103083734D01*
X171690980Y-103103991D01*
X171687000Y-103124000D01*
X171687000Y-103922538D01*
X170216538Y-105393000D01*
X161761462Y-105393000D01*
X160799000Y-104430538D01*
X160799000Y-102362000D01*
X160759037Y-102161091D01*
X160645231Y-101990769D01*
X157478231Y-98823769D01*
X157307909Y-98709963D01*
X157107000Y-98670000D01*
X156632346Y-98670000D01*
X156632346Y-98645000D01*
X156606198Y-98506034D01*
X156524069Y-98378401D01*
X156398754Y-98292777D01*
X156250000Y-98262654D01*
X154250000Y-98262654D01*
X154111034Y-98288802D01*
X153983401Y-98370931D01*
X153897777Y-98496246D01*
X153867654Y-98645000D01*
X153574486Y-98645000D01*
X153417856Y-98488097D01*
X153169855Y-98385117D01*
X152901323Y-98384883D01*
X152653143Y-98487429D01*
X152463097Y-98677144D01*
X152360117Y-98925145D01*
X152359883Y-99193677D01*
X152462429Y-99441857D01*
X152510000Y-99489511D01*
X152510000Y-104777538D01*
X152290000Y-104557538D01*
X152290000Y-98854677D01*
X152336903Y-98807856D01*
X152439883Y-98559855D01*
X152440117Y-98291323D01*
X152337571Y-98043143D01*
X152147856Y-97853097D01*
X151899855Y-97750117D01*
X151631323Y-97749883D01*
X151383143Y-97852429D01*
X151193097Y-98042144D01*
X151147000Y-98153157D01*
X151147000Y-97711677D01*
X151193903Y-97664856D01*
X151296883Y-97416855D01*
X151297117Y-97148323D01*
X151194571Y-96900143D01*
X151004856Y-96710097D01*
X150756855Y-96607117D01*
X150488323Y-96606883D01*
X150240143Y-96709429D01*
X150050097Y-96899144D01*
X149947117Y-97147145D01*
X149946883Y-97415677D01*
X150049429Y-97663857D01*
X150097000Y-97711511D01*
X150097000Y-106716538D01*
X149234769Y-107578769D01*
X149120963Y-107749091D01*
X149081000Y-107950000D01*
X148620639Y-107950000D01*
X148424207Y-107656020D01*
X148220639Y-107520000D01*
X148424207Y-107383980D01*
X148670678Y-107015111D01*
X148757227Y-106580000D01*
X148670678Y-106144889D01*
X148424207Y-105776020D01*
X148220639Y-105640000D01*
X148424207Y-105503980D01*
X148670678Y-105135111D01*
X148757227Y-104700000D01*
X148670678Y-104264889D01*
X148424207Y-103896020D01*
X148220639Y-103760000D01*
X148424207Y-103623980D01*
X148670678Y-103255111D01*
X148728117Y-102966345D01*
X149469231Y-102225231D01*
X149583037Y-102054909D01*
X149623000Y-101854000D01*
X149623000Y-99822000D01*
X149583037Y-99621091D01*
X149469231Y-99450769D01*
X148707231Y-98688769D01*
X148679729Y-98670393D01*
X148670678Y-98624889D01*
X148424207Y-98256020D01*
X148220639Y-98120000D01*
X148424207Y-97983980D01*
X148670678Y-97615111D01*
X148757227Y-97180000D01*
X148670678Y-96744889D01*
X148424207Y-96376020D01*
X148220639Y-96240000D01*
X148362816Y-96145000D01*
X153867654Y-96145000D01*
X153867654Y-97245000D01*
X153893802Y-97383966D01*
X153975931Y-97511599D01*
X154101246Y-97597223D01*
X154250000Y-97627346D01*
X156250000Y-97627346D01*
X156388966Y-97601198D01*
X156516599Y-97519069D01*
X156602223Y-97393754D01*
X156632346Y-97245000D01*
X156632346Y-96145000D01*
X156606198Y-96006034D01*
X156524069Y-95878401D01*
X156398754Y-95792777D01*
X156250000Y-95762654D01*
X154250000Y-95762654D01*
X154111034Y-95788802D01*
X153983401Y-95870931D01*
X153897777Y-95996246D01*
X153867654Y-96145000D01*
X148362816Y-96145000D01*
X148424207Y-96103980D01*
X148670678Y-95735111D01*
X148725820Y-95457893D01*
X157674814Y-95457893D01*
X157838128Y-95853143D01*
X158140267Y-96155809D01*
X158535231Y-96319813D01*
X158962893Y-96320186D01*
X159358143Y-96156872D01*
X159660809Y-95854733D01*
X159824813Y-95459769D01*
X159825186Y-95032107D01*
X159661872Y-94636857D01*
X159359733Y-94334191D01*
X158964769Y-94170187D01*
X158537107Y-94169814D01*
X158141857Y-94333128D01*
X157839191Y-94635267D01*
X157675187Y-95030231D01*
X157674814Y-95457893D01*
X148725820Y-95457893D01*
X148757227Y-95300000D01*
X148670678Y-94864889D01*
X148424207Y-94496020D01*
X148220639Y-94360000D01*
X148424207Y-94223980D01*
X148670678Y-93855111D01*
X148757227Y-93420000D01*
X148670678Y-92984889D01*
X148424207Y-92616020D01*
X148220639Y-92480000D01*
X148424207Y-92343980D01*
X148670678Y-91975111D01*
X148757227Y-91540000D01*
X148670678Y-91104889D01*
X148424207Y-90736020D01*
X148055338Y-90489549D01*
X147620227Y-90403000D01*
X146539773Y-90403000D01*
X146104662Y-90489549D01*
X145735793Y-90736020D01*
X145489322Y-91104889D01*
X145426046Y-91423000D01*
X139570468Y-91423000D01*
X139612883Y-91320855D01*
X139613117Y-91052323D01*
X139510571Y-90804143D01*
X139320856Y-90614097D01*
X139072855Y-90511117D01*
X138804323Y-90510883D01*
X138556143Y-90613429D01*
X138508489Y-90661000D01*
X134874000Y-90661000D01*
X134673091Y-90700963D01*
X134502769Y-90814769D01*
X134302538Y-91015000D01*
X133610616Y-91015000D01*
X133424207Y-90736020D01*
X133055338Y-90489549D01*
X132620227Y-90403000D01*
X131539773Y-90403000D01*
X131104662Y-90489549D01*
X130935000Y-90602914D01*
X130935000Y-90295000D01*
X170867654Y-90295000D01*
X170867654Y-91145000D01*
X170867654Y-91145000D01*
G37*
X170867654Y-91145000D02*
X170893802Y-91283966D01*
X170975931Y-91411599D01*
X171101246Y-91497223D01*
X171250000Y-91527346D01*
X176250000Y-91527346D01*
X176388966Y-91501198D01*
X176516599Y-91419069D01*
X176575919Y-91332250D01*
X178367000Y-91332250D01*
X178367000Y-92170911D01*
X178463368Y-92403565D01*
X178641434Y-92581631D01*
X178874088Y-92678000D01*
X179462750Y-92678000D01*
X179621000Y-92519750D01*
X179621000Y-91174000D01*
X178525250Y-91174000D01*
X178367000Y-91332250D01*
X176575919Y-91332250D01*
X176602223Y-91293754D01*
X176632346Y-91145000D01*
X176632346Y-90295000D01*
X178367000Y-90295000D01*
X178367000Y-90757750D01*
X178525250Y-90916000D01*
X179621000Y-90916000D01*
X179621000Y-90896000D01*
X179879000Y-90896000D01*
X179879000Y-90916000D01*
X179899000Y-90916000D01*
X179899000Y-91174000D01*
X179879000Y-91174000D01*
X179879000Y-92519750D01*
X180037250Y-92678000D01*
X180215000Y-92678000D01*
X180215000Y-103429589D01*
X180190037Y-103304091D01*
X180076231Y-103133769D01*
X179441231Y-102498769D01*
X179270909Y-102384963D01*
X179070000Y-102345000D01*
X177594677Y-102345000D01*
X177547856Y-102298097D01*
X177299855Y-102195117D01*
X177031323Y-102194883D01*
X176783143Y-102297429D01*
X176593097Y-102487144D01*
X176490117Y-102735145D01*
X176489883Y-103003677D01*
X176592429Y-103251857D01*
X176782144Y-103441903D01*
X176934165Y-103505028D01*
X176783143Y-103567429D01*
X176593097Y-103757144D01*
X176490117Y-104005145D01*
X176489883Y-104273677D01*
X176592429Y-104521857D01*
X176640000Y-104569511D01*
X176640000Y-108790323D01*
X176593097Y-108837144D01*
X176490117Y-109085145D01*
X176489883Y-109353677D01*
X176592429Y-109601857D01*
X176782144Y-109791903D01*
X177030145Y-109894883D01*
X177298677Y-109895117D01*
X177546857Y-109792571D01*
X177736903Y-109602856D01*
X177839883Y-109354855D01*
X177840117Y-109086323D01*
X177737571Y-108838143D01*
X177690000Y-108790489D01*
X177690000Y-104569677D01*
X177736903Y-104522856D01*
X177800028Y-104370835D01*
X177862429Y-104521857D01*
X177910000Y-104569511D01*
X177910000Y-110060323D01*
X177863097Y-110107144D01*
X177760117Y-110355145D01*
X177759883Y-110623677D01*
X177862429Y-110871857D01*
X178052144Y-111061903D01*
X178300145Y-111164883D01*
X178568677Y-111165117D01*
X178816857Y-111062571D01*
X179006903Y-110872856D01*
X179070028Y-110720835D01*
X179132429Y-110871857D01*
X179322144Y-111061903D01*
X179570145Y-111164883D01*
X179838677Y-111165117D01*
X180086857Y-111062571D01*
X180215000Y-110934651D01*
X180215000Y-121795000D01*
X147428000Y-121795000D01*
X147428000Y-120937250D01*
X147269750Y-120779000D01*
X146289000Y-120779000D01*
X146289000Y-120799000D01*
X146031000Y-120799000D01*
X146031000Y-120779000D01*
X145050250Y-120779000D01*
X144892000Y-120937250D01*
X144892000Y-121795000D01*
X142677346Y-121795000D01*
X142677346Y-119380000D01*
X142653655Y-119254089D01*
X144892000Y-119254089D01*
X144892000Y-120362750D01*
X145050250Y-120521000D01*
X146031000Y-120521000D01*
X146031000Y-118905250D01*
X146289000Y-118905250D01*
X146289000Y-120521000D01*
X147269750Y-120521000D01*
X147428000Y-120362750D01*
X147428000Y-119738525D01*
X149690990Y-119738525D01*
X149858943Y-120144024D01*
X150248076Y-120572279D01*
X150771474Y-120819020D01*
X151001000Y-120699139D01*
X151001000Y-119509000D01*
X151259000Y-119509000D01*
X151259000Y-120699139D01*
X151488526Y-120819020D01*
X152011924Y-120572279D01*
X152401057Y-120144024D01*
X152569010Y-119738525D01*
X152565715Y-119732250D01*
X165867000Y-119732250D01*
X165867000Y-120570911D01*
X165963368Y-120803565D01*
X166141434Y-120981631D01*
X166374088Y-121078000D01*
X166962750Y-121078000D01*
X167121000Y-120919750D01*
X167121000Y-119574000D01*
X167379000Y-119574000D01*
X167379000Y-120919750D01*
X167537250Y-121078000D01*
X168125912Y-121078000D01*
X168358566Y-120981631D01*
X168536632Y-120803565D01*
X168633000Y-120570911D01*
X168633000Y-119732250D01*
X168474750Y-119574000D01*
X167379000Y-119574000D01*
X167121000Y-119574000D01*
X166025250Y-119574000D01*
X165867000Y-119732250D01*
X152565715Y-119732250D01*
X152467363Y-119545000D01*
X170867654Y-119545000D01*
X170867654Y-120545000D01*
X170893802Y-120683966D01*
X170975931Y-120811599D01*
X171101246Y-120897223D01*
X171250000Y-120927346D01*
X176250000Y-120927346D01*
X176388966Y-120901198D01*
X176516599Y-120819069D01*
X176602223Y-120693754D01*
X176632346Y-120545000D01*
X176632346Y-119732250D01*
X177367000Y-119732250D01*
X177367000Y-120570911D01*
X177463368Y-120803565D01*
X177641434Y-120981631D01*
X177874088Y-121078000D01*
X178462750Y-121078000D01*
X178621000Y-120919750D01*
X178621000Y-119574000D01*
X178879000Y-119574000D01*
X178879000Y-120919750D01*
X179037250Y-121078000D01*
X179625912Y-121078000D01*
X179858566Y-120981631D01*
X180036632Y-120803565D01*
X180133000Y-120570911D01*
X180133000Y-119732250D01*
X179974750Y-119574000D01*
X178879000Y-119574000D01*
X178621000Y-119574000D01*
X177525250Y-119574000D01*
X177367000Y-119732250D01*
X176632346Y-119732250D01*
X176632346Y-119545000D01*
X176606198Y-119406034D01*
X176524069Y-119278401D01*
X176398754Y-119192777D01*
X176250000Y-119162654D01*
X171250000Y-119162654D01*
X171111034Y-119188802D01*
X170983401Y-119270931D01*
X170897777Y-119396246D01*
X170867654Y-119545000D01*
X152467363Y-119545000D01*
X152448454Y-119509000D01*
X151259000Y-119509000D01*
X151001000Y-119509000D01*
X149811546Y-119509000D01*
X149690990Y-119738525D01*
X147428000Y-119738525D01*
X147428000Y-119254089D01*
X147331632Y-119021435D01*
X147153566Y-118843369D01*
X146920912Y-118747000D01*
X146447250Y-118747000D01*
X146289000Y-118905250D01*
X146031000Y-118905250D01*
X145872750Y-118747000D01*
X145399088Y-118747000D01*
X145166434Y-118843369D01*
X144988368Y-119021435D01*
X144892000Y-119254089D01*
X142653655Y-119254089D01*
X142651198Y-119241034D01*
X142569069Y-119113401D01*
X142443754Y-119027777D01*
X142295000Y-118997654D01*
X142185000Y-118997654D01*
X142185000Y-118539677D01*
X142231903Y-118492856D01*
X142334883Y-118244855D01*
X142335117Y-117976323D01*
X142232571Y-117728143D01*
X142185000Y-117680489D01*
X142185000Y-114302346D01*
X142295000Y-114302346D01*
X142433966Y-114276198D01*
X142561599Y-114194069D01*
X142647223Y-114068754D01*
X142677346Y-113920000D01*
X142677346Y-112937250D01*
X144892000Y-112937250D01*
X144892000Y-114045911D01*
X144988368Y-114278565D01*
X145166434Y-114456631D01*
X145399088Y-114553000D01*
X145872750Y-114553000D01*
X146031000Y-114394750D01*
X146031000Y-112779000D01*
X146289000Y-112779000D01*
X146289000Y-114394750D01*
X146447250Y-114553000D01*
X146920912Y-114553000D01*
X147153566Y-114456631D01*
X147331632Y-114278565D01*
X147428000Y-114045911D01*
X147428000Y-112937250D01*
X147269750Y-112779000D01*
X146289000Y-112779000D01*
X146031000Y-112779000D01*
X145050250Y-112779000D01*
X144892000Y-112937250D01*
X142677346Y-112937250D01*
X142677346Y-111380000D01*
X142653655Y-111254089D01*
X144892000Y-111254089D01*
X144892000Y-112362750D01*
X145050250Y-112521000D01*
X146031000Y-112521000D01*
X146031000Y-110905250D01*
X146289000Y-110905250D01*
X146289000Y-112521000D01*
X147269750Y-112521000D01*
X147428000Y-112362750D01*
X147428000Y-111254089D01*
X147331632Y-111021435D01*
X147153566Y-110843369D01*
X146920912Y-110747000D01*
X146447250Y-110747000D01*
X146289000Y-110905250D01*
X146031000Y-110905250D01*
X145872750Y-110747000D01*
X145399088Y-110747000D01*
X145166434Y-110843369D01*
X144988368Y-111021435D01*
X144892000Y-111254089D01*
X142653655Y-111254089D01*
X142651198Y-111241034D01*
X142569069Y-111113401D01*
X142443754Y-111027777D01*
X142295000Y-110997654D01*
X141025000Y-110997654D01*
X140886034Y-111023802D01*
X140758401Y-111105931D01*
X140672777Y-111231246D01*
X140642654Y-111380000D01*
X140642654Y-113920000D01*
X140668802Y-114058966D01*
X140750931Y-114186599D01*
X140876246Y-114272223D01*
X141025000Y-114302346D01*
X141135000Y-114302346D01*
X141135000Y-117680323D01*
X141088097Y-117727144D01*
X140985117Y-117975145D01*
X140984883Y-118243677D01*
X141087429Y-118491857D01*
X141135000Y-118539511D01*
X141135000Y-118997654D01*
X141025000Y-118997654D01*
X140886034Y-119023802D01*
X140758401Y-119105931D01*
X140672777Y-119231246D01*
X140642654Y-119380000D01*
X140642654Y-121795000D01*
X139808000Y-121795000D01*
X139808000Y-120937250D01*
X139649750Y-120779000D01*
X138669000Y-120779000D01*
X138669000Y-120799000D01*
X138411000Y-120799000D01*
X138411000Y-120779000D01*
X137430250Y-120779000D01*
X137272000Y-120937250D01*
X137272000Y-121795000D01*
X135057346Y-121795000D01*
X135057346Y-119380000D01*
X135033655Y-119254089D01*
X137272000Y-119254089D01*
X137272000Y-120362750D01*
X137430250Y-120521000D01*
X138411000Y-120521000D01*
X138411000Y-118905250D01*
X138669000Y-118905250D01*
X138669000Y-120521000D01*
X139649750Y-120521000D01*
X139808000Y-120362750D01*
X139808000Y-119254089D01*
X139711632Y-119021435D01*
X139533566Y-118843369D01*
X139300912Y-118747000D01*
X138827250Y-118747000D01*
X138669000Y-118905250D01*
X138411000Y-118905250D01*
X138252750Y-118747000D01*
X137779088Y-118747000D01*
X137546434Y-118843369D01*
X137368368Y-119021435D01*
X137272000Y-119254089D01*
X135033655Y-119254089D01*
X135031198Y-119241034D01*
X134949069Y-119113401D01*
X134823754Y-119027777D01*
X134675000Y-118997654D01*
X134565000Y-118997654D01*
X134565000Y-116634677D01*
X134611903Y-116587856D01*
X134714883Y-116339855D01*
X134715117Y-116071323D01*
X134612571Y-115823143D01*
X134565000Y-115775489D01*
X134565000Y-114302346D01*
X134675000Y-114302346D01*
X134813966Y-114276198D01*
X134941599Y-114194069D01*
X135027223Y-114068754D01*
X135057346Y-113920000D01*
X135057346Y-112937250D01*
X137272000Y-112937250D01*
X137272000Y-114045911D01*
X137368368Y-114278565D01*
X137546434Y-114456631D01*
X137779088Y-114553000D01*
X138252750Y-114553000D01*
X138411000Y-114394750D01*
X138411000Y-112779000D01*
X138669000Y-112779000D01*
X138669000Y-114394750D01*
X138827250Y-114553000D01*
X139300912Y-114553000D01*
X139533566Y-114456631D01*
X139711632Y-114278565D01*
X139808000Y-114045911D01*
X139808000Y-112937250D01*
X139649750Y-112779000D01*
X138669000Y-112779000D01*
X138411000Y-112779000D01*
X137430250Y-112779000D01*
X137272000Y-112937250D01*
X135057346Y-112937250D01*
X135057346Y-111380000D01*
X135033655Y-111254089D01*
X137272000Y-111254089D01*
X137272000Y-112362750D01*
X137430250Y-112521000D01*
X138411000Y-112521000D01*
X138411000Y-110905250D01*
X138669000Y-110905250D01*
X138669000Y-112521000D01*
X139649750Y-112521000D01*
X139808000Y-112362750D01*
X139808000Y-111254089D01*
X139711632Y-111021435D01*
X139533566Y-110843369D01*
X139300912Y-110747000D01*
X138827250Y-110747000D01*
X138669000Y-110905250D01*
X138411000Y-110905250D01*
X138252750Y-110747000D01*
X137779088Y-110747000D01*
X137546434Y-110843369D01*
X137368368Y-111021435D01*
X137272000Y-111254089D01*
X135033655Y-111254089D01*
X135031198Y-111241034D01*
X134949069Y-111113401D01*
X134823754Y-111027777D01*
X134675000Y-110997654D01*
X133405000Y-110997654D01*
X133266034Y-111023802D01*
X133138401Y-111105931D01*
X133052777Y-111231246D01*
X133022654Y-111380000D01*
X133022654Y-113920000D01*
X133048802Y-114058966D01*
X133130931Y-114186599D01*
X133256246Y-114272223D01*
X133405000Y-114302346D01*
X133515000Y-114302346D01*
X133515000Y-115775323D01*
X133468097Y-115822144D01*
X133365117Y-116070145D01*
X133364883Y-116338677D01*
X133467429Y-116586857D01*
X133515000Y-116634511D01*
X133515000Y-118997654D01*
X133405000Y-118997654D01*
X133266034Y-119023802D01*
X133138401Y-119105931D01*
X133052777Y-119231246D01*
X133022654Y-119380000D01*
X133022654Y-121795000D01*
X130935000Y-121795000D01*
X130935000Y-109397086D01*
X131104662Y-109510451D01*
X131539773Y-109597000D01*
X132620227Y-109597000D01*
X133055338Y-109510451D01*
X133424207Y-109263980D01*
X133610616Y-108985000D01*
X133938319Y-108985000D01*
X133983144Y-109029903D01*
X134231145Y-109132883D01*
X134499677Y-109133117D01*
X134747857Y-109030571D01*
X134937903Y-108840856D01*
X135040883Y-108592855D01*
X135041117Y-108324323D01*
X134938571Y-108076143D01*
X134748856Y-107886097D01*
X134500855Y-107783117D01*
X134232323Y-107782883D01*
X133984143Y-107885429D01*
X133934486Y-107935000D01*
X133610616Y-107935000D01*
X133424207Y-107656020D01*
X133220639Y-107520000D01*
X133424207Y-107383980D01*
X133610616Y-107105000D01*
X135228000Y-107105000D01*
X135248691Y-107100884D01*
X135515677Y-107101117D01*
X135763857Y-106998571D01*
X135953903Y-106808856D01*
X136056883Y-106560855D01*
X136057117Y-106292323D01*
X135954571Y-106044143D01*
X135764856Y-105854097D01*
X135516855Y-105751117D01*
X135248323Y-105750883D01*
X135000143Y-105853429D01*
X134810097Y-106043144D01*
X134805174Y-106055000D01*
X133610616Y-106055000D01*
X133424207Y-105776020D01*
X133220639Y-105640000D01*
X133424207Y-105503980D01*
X133645361Y-105173000D01*
X141810323Y-105173000D01*
X141857144Y-105219903D01*
X142105145Y-105322883D01*
X142373677Y-105323117D01*
X142611138Y-105225000D01*
X145549384Y-105225000D01*
X145735793Y-105503980D01*
X145939361Y-105640000D01*
X145735793Y-105776020D01*
X145549384Y-106055000D01*
X145201102Y-106055000D01*
X145201117Y-106038323D01*
X145098571Y-105790143D01*
X144908856Y-105600097D01*
X144660855Y-105497117D01*
X144392323Y-105496883D01*
X144144143Y-105599429D01*
X144096489Y-105647000D01*
X139367677Y-105647000D01*
X139320856Y-105600097D01*
X139072855Y-105497117D01*
X138804323Y-105496883D01*
X138556143Y-105599429D01*
X138366097Y-105789144D01*
X138263117Y-106037145D01*
X138262883Y-106305677D01*
X138365429Y-106553857D01*
X138555144Y-106743903D01*
X138803145Y-106846883D01*
X139071677Y-106847117D01*
X139319857Y-106744571D01*
X139367511Y-106697000D01*
X144096323Y-106697000D01*
X144143144Y-106743903D01*
X144391145Y-106846883D01*
X144458480Y-106846942D01*
X144562769Y-106951231D01*
X144733091Y-107065037D01*
X144934000Y-107105000D01*
X145549384Y-107105000D01*
X145735793Y-107383980D01*
X145939361Y-107520000D01*
X145735793Y-107656020D01*
X145549384Y-107935000D01*
X140935462Y-107935000D01*
X140883059Y-107882597D01*
X140883117Y-107816323D01*
X140780571Y-107568143D01*
X140590856Y-107378097D01*
X140342855Y-107275117D01*
X140074323Y-107274883D01*
X139826143Y-107377429D01*
X139636097Y-107567144D01*
X139533117Y-107815145D01*
X139532883Y-108083677D01*
X139635429Y-108331857D01*
X139825144Y-108521903D01*
X140073145Y-108624883D01*
X140140480Y-108624942D01*
X140346769Y-108831231D01*
X140517091Y-108945037D01*
X140718000Y-108985000D01*
X145549384Y-108985000D01*
X145735793Y-109263980D01*
X146104662Y-109510451D01*
X146539773Y-109597000D01*
X147620227Y-109597000D01*
X148055338Y-109510451D01*
X148424207Y-109263980D01*
X148670678Y-108895111D01*
X148757227Y-108460000D01*
X148670678Y-108024889D01*
X148620639Y-107950000D01*
X149081000Y-107950000D01*
X149081000Y-116078000D01*
X149120963Y-116278909D01*
X149234769Y-116449231D01*
X149944434Y-117158896D01*
X149974249Y-117308787D01*
X150239795Y-117706206D01*
X150637214Y-117971752D01*
X150685729Y-117981402D01*
X150248076Y-118187721D01*
X149858943Y-118615976D01*
X149690990Y-119021475D01*
X149811546Y-119251000D01*
X151001000Y-119251000D01*
X151001000Y-119231000D01*
X151259000Y-119231000D01*
X151259000Y-119251000D01*
X152448454Y-119251000D01*
X152569010Y-119021475D01*
X152401057Y-118615976D01*
X152011924Y-118187721D01*
X151574271Y-117981402D01*
X151622786Y-117971752D01*
X151962145Y-117745000D01*
X153867654Y-117745000D01*
X153867654Y-118845000D01*
X153893802Y-118983966D01*
X153975931Y-119111599D01*
X154101246Y-119197223D01*
X154250000Y-119227346D01*
X156250000Y-119227346D01*
X156388966Y-119201198D01*
X156516599Y-119119069D01*
X156602223Y-118993754D01*
X156632346Y-118845000D01*
X156632346Y-118430116D01*
X156743373Y-118319089D01*
X165867000Y-118319089D01*
X165867000Y-119157750D01*
X166025250Y-119316000D01*
X167121000Y-119316000D01*
X167121000Y-117970250D01*
X167379000Y-117970250D01*
X167379000Y-119316000D01*
X168474750Y-119316000D01*
X168633000Y-119157750D01*
X168633000Y-118319089D01*
X177367000Y-118319089D01*
X177367000Y-119157750D01*
X177525250Y-119316000D01*
X178621000Y-119316000D01*
X178621000Y-117970250D01*
X178879000Y-117970250D01*
X178879000Y-119316000D01*
X179974750Y-119316000D01*
X180133000Y-119157750D01*
X180133000Y-118319089D01*
X180036632Y-118086435D01*
X179858566Y-117908369D01*
X179625912Y-117812000D01*
X179037250Y-117812000D01*
X178879000Y-117970250D01*
X178621000Y-117970250D01*
X178462750Y-117812000D01*
X177874088Y-117812000D01*
X177641434Y-117908369D01*
X177463368Y-118086435D01*
X177367000Y-118319089D01*
X168633000Y-118319089D01*
X168536632Y-118086435D01*
X168358566Y-117908369D01*
X168125912Y-117812000D01*
X167537250Y-117812000D01*
X167379000Y-117970250D01*
X167121000Y-117970250D01*
X166962750Y-117812000D01*
X166374088Y-117812000D01*
X166141434Y-117908369D01*
X165963368Y-118086435D01*
X165867000Y-118319089D01*
X156743373Y-118319089D01*
X157062462Y-118000000D01*
X160020000Y-118000000D01*
X160220909Y-117960037D01*
X160391231Y-117846231D01*
X161026231Y-117211231D01*
X161140037Y-117040909D01*
X161180000Y-116840000D01*
X161180000Y-113882462D01*
X164047462Y-111015000D01*
X171655323Y-111015000D01*
X171702144Y-111061903D01*
X171950145Y-111164883D01*
X172218677Y-111165117D01*
X172466857Y-111062571D01*
X172656903Y-110872856D01*
X172759883Y-110624855D01*
X172760117Y-110356323D01*
X172657571Y-110108143D01*
X172467856Y-109918097D01*
X172219855Y-109815117D01*
X171951323Y-109814883D01*
X171703143Y-109917429D01*
X171655489Y-109965000D01*
X163830000Y-109965000D01*
X163629091Y-110004963D01*
X163458769Y-110118769D01*
X160283769Y-113293769D01*
X160169963Y-113464091D01*
X160130000Y-113665000D01*
X160130000Y-116622538D01*
X159802538Y-116950000D01*
X156845000Y-116950000D01*
X156644091Y-116989963D01*
X156473769Y-117103769D01*
X156214884Y-117362654D01*
X154250000Y-117362654D01*
X154111034Y-117388802D01*
X153983401Y-117470931D01*
X153897777Y-117596246D01*
X153867654Y-117745000D01*
X151962145Y-117745000D01*
X152020205Y-117706206D01*
X152285751Y-117308787D01*
X152378999Y-116840000D01*
X152285751Y-116371213D01*
X152020205Y-115973794D01*
X151622786Y-115708248D01*
X151153999Y-115615000D01*
X151106001Y-115615000D01*
X150637214Y-115708248D01*
X150242469Y-115972007D01*
X150131000Y-115860538D01*
X150131000Y-115003382D01*
X150239795Y-115166206D01*
X150637214Y-115431752D01*
X151106001Y-115525000D01*
X151153999Y-115525000D01*
X151622786Y-115431752D01*
X152020205Y-115166206D01*
X152285751Y-114768787D01*
X152378999Y-114300000D01*
X152294959Y-113877503D01*
X153406231Y-112766231D01*
X153520037Y-112595909D01*
X153560000Y-112395000D01*
X153560000Y-111982250D01*
X153617000Y-111982250D01*
X153617000Y-112370911D01*
X153713368Y-112603565D01*
X153891434Y-112781631D01*
X154124088Y-112878000D01*
X154962750Y-112878000D01*
X155121000Y-112719750D01*
X155121000Y-111824000D01*
X155379000Y-111824000D01*
X155379000Y-112719750D01*
X155537250Y-112878000D01*
X156375912Y-112878000D01*
X156608566Y-112781631D01*
X156786632Y-112603565D01*
X156883000Y-112370911D01*
X156883000Y-111982250D01*
X156724750Y-111824000D01*
X155379000Y-111824000D01*
X155121000Y-111824000D01*
X153775250Y-111824000D01*
X153617000Y-111982250D01*
X153560000Y-111982250D01*
X153560000Y-111019089D01*
X153617000Y-111019089D01*
X153617000Y-111407750D01*
X153775250Y-111566000D01*
X155121000Y-111566000D01*
X155121000Y-110670250D01*
X155379000Y-110670250D01*
X155379000Y-111566000D01*
X156724750Y-111566000D01*
X156883000Y-111407750D01*
X156883000Y-111019089D01*
X156786632Y-110786435D01*
X156608566Y-110608369D01*
X156375912Y-110512000D01*
X155537250Y-110512000D01*
X155379000Y-110670250D01*
X155121000Y-110670250D01*
X154962750Y-110512000D01*
X154124088Y-110512000D01*
X153891434Y-110608369D01*
X153713368Y-110786435D01*
X153617000Y-111019089D01*
X153560000Y-111019089D01*
X153560000Y-106145000D01*
X153867654Y-106145000D01*
X153867654Y-107245000D01*
X153893802Y-107383966D01*
X153975931Y-107511599D01*
X154101246Y-107597223D01*
X154250000Y-107627346D01*
X156250000Y-107627346D01*
X156388966Y-107601198D01*
X156516599Y-107519069D01*
X156580160Y-107426044D01*
X156704905Y-107550788D01*
X156704866Y-107595481D01*
X156822604Y-107880429D01*
X157040425Y-108098630D01*
X157325167Y-108216865D01*
X157633481Y-108217134D01*
X157918429Y-108099396D01*
X158136630Y-107881575D01*
X158254865Y-107596833D01*
X158255134Y-107288519D01*
X158137396Y-107003571D01*
X157919575Y-106785370D01*
X157634833Y-106667135D01*
X157588978Y-106667095D01*
X157174942Y-106253058D01*
X156972177Y-106117575D01*
X156733000Y-106070000D01*
X156618234Y-106070000D01*
X156606198Y-106006034D01*
X156524069Y-105878401D01*
X156398754Y-105792777D01*
X156250000Y-105762654D01*
X154250000Y-105762654D01*
X154111034Y-105788802D01*
X153983401Y-105870931D01*
X153897777Y-105996246D01*
X153867654Y-106145000D01*
X153560000Y-106145000D01*
X153560000Y-104482250D01*
X153617000Y-104482250D01*
X153617000Y-104870911D01*
X153713368Y-105103565D01*
X153891434Y-105281631D01*
X154124088Y-105378000D01*
X154962750Y-105378000D01*
X155121000Y-105219750D01*
X155121000Y-104324000D01*
X155379000Y-104324000D01*
X155379000Y-105219750D01*
X155537250Y-105378000D01*
X156375912Y-105378000D01*
X156608566Y-105281631D01*
X156786632Y-105103565D01*
X156883000Y-104870911D01*
X156883000Y-104482250D01*
X156724750Y-104324000D01*
X155379000Y-104324000D01*
X155121000Y-104324000D01*
X153775250Y-104324000D01*
X153617000Y-104482250D01*
X153560000Y-104482250D01*
X153560000Y-103519089D01*
X153617000Y-103519089D01*
X153617000Y-103907750D01*
X153775250Y-104066000D01*
X155121000Y-104066000D01*
X155121000Y-103170250D01*
X155379000Y-103170250D01*
X155379000Y-104066000D01*
X156724750Y-104066000D01*
X156883000Y-103907750D01*
X156883000Y-103519089D01*
X156786632Y-103286435D01*
X156608566Y-103108369D01*
X156375912Y-103012000D01*
X155537250Y-103012000D01*
X155379000Y-103170250D01*
X155121000Y-103170250D01*
X154962750Y-103012000D01*
X154124088Y-103012000D01*
X153891434Y-103108369D01*
X153713368Y-103286435D01*
X153617000Y-103519089D01*
X153560000Y-103519089D01*
X153560000Y-99489677D01*
X153606903Y-99442856D01*
X153709883Y-99194855D01*
X153710117Y-98926323D01*
X153607571Y-98678143D01*
X153574486Y-98645000D01*
X153867654Y-98645000D01*
X153867654Y-99745000D01*
X153893802Y-99883966D01*
X153975931Y-100011599D01*
X154101246Y-100097223D01*
X154250000Y-100127346D01*
X156250000Y-100127346D01*
X156388966Y-100101198D01*
X156516599Y-100019069D01*
X156602223Y-99893754D01*
X156632346Y-99745000D01*
X156632346Y-99720000D01*
X156889538Y-99720000D01*
X159749000Y-102579462D01*
X159749000Y-102872538D01*
X158200231Y-101323769D01*
X158029909Y-101209963D01*
X157829000Y-101170000D01*
X156632346Y-101170000D01*
X156632346Y-101145000D01*
X156606198Y-101006034D01*
X156524069Y-100878401D01*
X156398754Y-100792777D01*
X156250000Y-100762654D01*
X154250000Y-100762654D01*
X154111034Y-100788802D01*
X153983401Y-100870931D01*
X153897777Y-100996246D01*
X153867654Y-101145000D01*
X153867654Y-102245000D01*
X153893802Y-102383966D01*
X153975931Y-102511599D01*
X154101246Y-102597223D01*
X154250000Y-102627346D01*
X156250000Y-102627346D01*
X156388966Y-102601198D01*
X156516599Y-102519069D01*
X156602223Y-102393754D01*
X156632346Y-102245000D01*
X156632346Y-102220000D01*
X157611538Y-102220000D01*
X158860000Y-103468462D01*
X158860000Y-106045000D01*
X158899963Y-106245909D01*
X159013769Y-106416231D01*
X159648769Y-107051231D01*
X159819091Y-107165037D01*
X160020000Y-107205000D01*
X171450000Y-107205000D01*
X171650909Y-107165037D01*
X171821231Y-107051231D01*
X172787403Y-106085059D01*
X172853677Y-106085117D01*
X173101857Y-105982571D01*
X173291903Y-105792856D01*
X173394883Y-105544855D01*
X173395117Y-105276323D01*
X173292571Y-105028143D01*
X173102856Y-104838097D01*
X172854855Y-104735117D01*
X172586323Y-104734883D01*
X172338143Y-104837429D01*
X172148097Y-105027144D01*
X172045117Y-105275145D01*
X172045058Y-105342480D01*
X171232538Y-106155000D01*
X170939462Y-106155000D01*
X172583231Y-104511231D01*
X172697037Y-104340909D01*
X172700490Y-104323550D01*
X172782429Y-104521857D01*
X172972144Y-104711903D01*
X173220145Y-104814883D01*
X173287480Y-104814942D01*
X173465000Y-104992462D01*
X173465000Y-106462538D01*
X172652597Y-107274941D01*
X172586323Y-107274883D01*
X172338143Y-107377429D01*
X172148097Y-107567144D01*
X172084972Y-107719165D01*
X172022571Y-107568143D01*
X171832856Y-107378097D01*
X171584855Y-107275117D01*
X171316323Y-107274883D01*
X171068143Y-107377429D01*
X171020489Y-107425000D01*
X160020000Y-107425000D01*
X159819091Y-107464963D01*
X159648769Y-107578769D01*
X158557538Y-108670000D01*
X156632346Y-108670000D01*
X156632346Y-108645000D01*
X156606198Y-108506034D01*
X156524069Y-108378401D01*
X156398754Y-108292777D01*
X156250000Y-108262654D01*
X154250000Y-108262654D01*
X154111034Y-108288802D01*
X153983401Y-108370931D01*
X153897777Y-108496246D01*
X153867654Y-108645000D01*
X153867654Y-109745000D01*
X153893802Y-109883966D01*
X153975931Y-110011599D01*
X154101246Y-110097223D01*
X154250000Y-110127346D01*
X156250000Y-110127346D01*
X156388966Y-110101198D01*
X156516599Y-110019069D01*
X156602223Y-109893754D01*
X156632346Y-109745000D01*
X156632346Y-109720000D01*
X158775000Y-109720000D01*
X158975909Y-109680037D01*
X159146231Y-109566231D01*
X160237462Y-108475000D01*
X171020323Y-108475000D01*
X171067144Y-108521903D01*
X171306320Y-108621218D01*
X171232538Y-108695000D01*
X161925000Y-108695000D01*
X161724091Y-108734963D01*
X161553769Y-108848769D01*
X156832538Y-113570000D01*
X156632346Y-113570000D01*
X156632346Y-113545000D01*
X156606198Y-113406034D01*
X156524069Y-113278401D01*
X156398754Y-113192777D01*
X156250000Y-113162654D01*
X154250000Y-113162654D01*
X154111034Y-113188802D01*
X153983401Y-113270931D01*
X153897777Y-113396246D01*
X153867654Y-113545000D01*
X153867654Y-114645000D01*
X153893802Y-114783966D01*
X153975931Y-114911599D01*
X154024274Y-114944630D01*
X153983401Y-114970931D01*
X153897777Y-115096246D01*
X153867654Y-115245000D01*
X153867654Y-116345000D01*
X153893802Y-116483966D01*
X153975931Y-116611599D01*
X154101246Y-116697223D01*
X154250000Y-116727346D01*
X156250000Y-116727346D01*
X156388966Y-116701198D01*
X156516599Y-116619069D01*
X156602223Y-116493754D01*
X156632346Y-116345000D01*
X156632346Y-115457893D01*
X157674814Y-115457893D01*
X157838128Y-115853143D01*
X158140267Y-116155809D01*
X158535231Y-116319813D01*
X158962893Y-116320186D01*
X159358143Y-116156872D01*
X159660809Y-115854733D01*
X159824813Y-115459769D01*
X159825186Y-115032107D01*
X159661872Y-114636857D01*
X159359733Y-114334191D01*
X158964769Y-114170187D01*
X158537107Y-114169814D01*
X158141857Y-114333128D01*
X157839191Y-114635267D01*
X157675187Y-115030231D01*
X157674814Y-115457893D01*
X156632346Y-115457893D01*
X156632346Y-115245000D01*
X156606198Y-115106034D01*
X156524069Y-114978401D01*
X156475726Y-114945370D01*
X156516599Y-114919069D01*
X156602223Y-114793754D01*
X156632346Y-114645000D01*
X156632346Y-114620000D01*
X157050000Y-114620000D01*
X157250909Y-114580037D01*
X157421231Y-114466231D01*
X162142462Y-109745000D01*
X171450000Y-109745000D01*
X171650909Y-109705037D01*
X171821231Y-109591231D01*
X172787403Y-108625059D01*
X172853677Y-108625117D01*
X173101857Y-108522571D01*
X173291903Y-108332856D01*
X173394883Y-108084855D01*
X173394942Y-108017520D01*
X174361231Y-107051231D01*
X174475037Y-106880909D01*
X174515000Y-106680000D01*
X174515000Y-104775000D01*
X174475037Y-104574091D01*
X174361231Y-104403769D01*
X174030059Y-104072597D01*
X174030117Y-104006323D01*
X173927571Y-103758143D01*
X173737856Y-103568097D01*
X173489855Y-103465117D01*
X173221323Y-103464883D01*
X172973143Y-103567429D01*
X172783097Y-103757144D01*
X172737000Y-103868157D01*
X172737000Y-103365466D01*
X174009190Y-102275017D01*
X174123677Y-102275117D01*
X174371857Y-102172571D01*
X174561903Y-101982856D01*
X174661218Y-101743680D01*
X174728925Y-101811387D01*
X174688097Y-101852144D01*
X174585117Y-102100145D01*
X174584883Y-102368677D01*
X174687429Y-102616857D01*
X174877144Y-102806903D01*
X175125145Y-102909883D01*
X175393677Y-102910117D01*
X175641857Y-102807571D01*
X175831903Y-102617856D01*
X175934883Y-102369855D01*
X175935117Y-102101323D01*
X175832571Y-101853143D01*
X175785000Y-101805489D01*
X175785000Y-101600000D01*
X175745037Y-101399091D01*
X175631231Y-101228769D01*
X174615231Y-100212769D01*
X174444909Y-100098963D01*
X174244000Y-100059000D01*
X173228000Y-100059000D01*
X173027091Y-100098963D01*
X172856769Y-100212769D01*
X170724538Y-102345000D01*
X169085677Y-102345000D01*
X169038856Y-102298097D01*
X168790855Y-102195117D01*
X168522323Y-102194883D01*
X168274143Y-102297429D01*
X168084097Y-102487144D01*
X167981117Y-102735145D01*
X167980883Y-103003677D01*
X168083429Y-103251857D01*
X168273144Y-103441903D01*
X168521145Y-103544883D01*
X168789677Y-103545117D01*
X169037857Y-103442571D01*
X169085511Y-103395000D01*
X170942000Y-103395000D01*
X171142909Y-103355037D01*
X171313231Y-103241231D01*
X173445462Y-101109000D01*
X173526430Y-101109000D01*
X173418097Y-101217144D01*
X173315117Y-101465145D01*
X173315098Y-101487021D01*
X171870335Y-102725390D01*
X171857733Y-102741434D01*
X171840769Y-102752769D01*
X171794852Y-102821488D01*
X171743801Y-102886482D01*
X171738298Y-102906127D01*
X171726963Y-102923091D01*
X171710840Y-103004149D01*
X171688546Y-103083734D01*
X171690980Y-103103991D01*
X171687000Y-103124000D01*
X171687000Y-103922538D01*
X170216538Y-105393000D01*
X161761462Y-105393000D01*
X160799000Y-104430538D01*
X160799000Y-102362000D01*
X160759037Y-102161091D01*
X160645231Y-101990769D01*
X157478231Y-98823769D01*
X157307909Y-98709963D01*
X157107000Y-98670000D01*
X156632346Y-98670000D01*
X156632346Y-98645000D01*
X156606198Y-98506034D01*
X156524069Y-98378401D01*
X156398754Y-98292777D01*
X156250000Y-98262654D01*
X154250000Y-98262654D01*
X154111034Y-98288802D01*
X153983401Y-98370931D01*
X153897777Y-98496246D01*
X153867654Y-98645000D01*
X153574486Y-98645000D01*
X153417856Y-98488097D01*
X153169855Y-98385117D01*
X152901323Y-98384883D01*
X152653143Y-98487429D01*
X152463097Y-98677144D01*
X152360117Y-98925145D01*
X152359883Y-99193677D01*
X152462429Y-99441857D01*
X152510000Y-99489511D01*
X152510000Y-104777538D01*
X152290000Y-104557538D01*
X152290000Y-98854677D01*
X152336903Y-98807856D01*
X152439883Y-98559855D01*
X152440117Y-98291323D01*
X152337571Y-98043143D01*
X152147856Y-97853097D01*
X151899855Y-97750117D01*
X151631323Y-97749883D01*
X151383143Y-97852429D01*
X151193097Y-98042144D01*
X151147000Y-98153157D01*
X151147000Y-97711677D01*
X151193903Y-97664856D01*
X151296883Y-97416855D01*
X151297117Y-97148323D01*
X151194571Y-96900143D01*
X151004856Y-96710097D01*
X150756855Y-96607117D01*
X150488323Y-96606883D01*
X150240143Y-96709429D01*
X150050097Y-96899144D01*
X149947117Y-97147145D01*
X149946883Y-97415677D01*
X150049429Y-97663857D01*
X150097000Y-97711511D01*
X150097000Y-106716538D01*
X149234769Y-107578769D01*
X149120963Y-107749091D01*
X149081000Y-107950000D01*
X148620639Y-107950000D01*
X148424207Y-107656020D01*
X148220639Y-107520000D01*
X148424207Y-107383980D01*
X148670678Y-107015111D01*
X148757227Y-106580000D01*
X148670678Y-106144889D01*
X148424207Y-105776020D01*
X148220639Y-105640000D01*
X148424207Y-105503980D01*
X148670678Y-105135111D01*
X148757227Y-104700000D01*
X148670678Y-104264889D01*
X148424207Y-103896020D01*
X148220639Y-103760000D01*
X148424207Y-103623980D01*
X148670678Y-103255111D01*
X148728117Y-102966345D01*
X149469231Y-102225231D01*
X149583037Y-102054909D01*
X149623000Y-101854000D01*
X149623000Y-99822000D01*
X149583037Y-99621091D01*
X149469231Y-99450769D01*
X148707231Y-98688769D01*
X148679729Y-98670393D01*
X148670678Y-98624889D01*
X148424207Y-98256020D01*
X148220639Y-98120000D01*
X148424207Y-97983980D01*
X148670678Y-97615111D01*
X148757227Y-97180000D01*
X148670678Y-96744889D01*
X148424207Y-96376020D01*
X148220639Y-96240000D01*
X148362816Y-96145000D01*
X153867654Y-96145000D01*
X153867654Y-97245000D01*
X153893802Y-97383966D01*
X153975931Y-97511599D01*
X154101246Y-97597223D01*
X154250000Y-97627346D01*
X156250000Y-97627346D01*
X156388966Y-97601198D01*
X156516599Y-97519069D01*
X156602223Y-97393754D01*
X156632346Y-97245000D01*
X156632346Y-96145000D01*
X156606198Y-96006034D01*
X156524069Y-95878401D01*
X156398754Y-95792777D01*
X156250000Y-95762654D01*
X154250000Y-95762654D01*
X154111034Y-95788802D01*
X153983401Y-95870931D01*
X153897777Y-95996246D01*
X153867654Y-96145000D01*
X148362816Y-96145000D01*
X148424207Y-96103980D01*
X148670678Y-95735111D01*
X148725820Y-95457893D01*
X157674814Y-95457893D01*
X157838128Y-95853143D01*
X158140267Y-96155809D01*
X158535231Y-96319813D01*
X158962893Y-96320186D01*
X159358143Y-96156872D01*
X159660809Y-95854733D01*
X159824813Y-95459769D01*
X159825186Y-95032107D01*
X159661872Y-94636857D01*
X159359733Y-94334191D01*
X158964769Y-94170187D01*
X158537107Y-94169814D01*
X158141857Y-94333128D01*
X157839191Y-94635267D01*
X157675187Y-95030231D01*
X157674814Y-95457893D01*
X148725820Y-95457893D01*
X148757227Y-95300000D01*
X148670678Y-94864889D01*
X148424207Y-94496020D01*
X148220639Y-94360000D01*
X148424207Y-94223980D01*
X148670678Y-93855111D01*
X148757227Y-93420000D01*
X148670678Y-92984889D01*
X148424207Y-92616020D01*
X148220639Y-92480000D01*
X148424207Y-92343980D01*
X148670678Y-91975111D01*
X148757227Y-91540000D01*
X148670678Y-91104889D01*
X148424207Y-90736020D01*
X148055338Y-90489549D01*
X147620227Y-90403000D01*
X146539773Y-90403000D01*
X146104662Y-90489549D01*
X145735793Y-90736020D01*
X145489322Y-91104889D01*
X145426046Y-91423000D01*
X139570468Y-91423000D01*
X139612883Y-91320855D01*
X139613117Y-91052323D01*
X139510571Y-90804143D01*
X139320856Y-90614097D01*
X139072855Y-90511117D01*
X138804323Y-90510883D01*
X138556143Y-90613429D01*
X138508489Y-90661000D01*
X134874000Y-90661000D01*
X134673091Y-90700963D01*
X134502769Y-90814769D01*
X134302538Y-91015000D01*
X133610616Y-91015000D01*
X133424207Y-90736020D01*
X133055338Y-90489549D01*
X132620227Y-90403000D01*
X131539773Y-90403000D01*
X131104662Y-90489549D01*
X130935000Y-90602914D01*
X130935000Y-90295000D01*
X170867654Y-90295000D01*
X170867654Y-91145000D01*
M02*
