G04 #@! TF.FileFunction,Soldermask,Bot*
%FSLAX46Y46*%
G04 Gerber Fmt 4.6, Leading zero omitted, Abs format (unit mm)*
G04 Created by KiCad (PCBNEW 4.0.4-stable) date 04/15/18 13:16:19*
%MOMM*%
%LPD*%
G01*
G04 APERTURE LIST*
%ADD10C,0.100000*%
%ADD11R,1.900000X1.650000*%
%ADD12R,1.600000X1.150000*%
%ADD13R,0.950000X2.000000*%
%ADD14R,2.000000X0.950000*%
%ADD15R,2.100000X2.100000*%
%ADD16O,2.100000X2.100000*%
%ADD17R,1.900000X1.700000*%
%ADD18R,2.400000X4.200000*%
%ADD19R,2.400000X1.900000*%
%ADD20R,4.400000X4.400000*%
%ADD21C,1.800000*%
G04 APERTURE END LIST*
D10*
D11*
X170160000Y-111760000D03*
X167660000Y-111760000D03*
D12*
X169860000Y-109220000D03*
X167960000Y-109220000D03*
D13*
X164840000Y-96080000D03*
X165640000Y-96080000D03*
X166440000Y-96080000D03*
X167240000Y-96080000D03*
X168040000Y-96080000D03*
X168840000Y-96080000D03*
X169640000Y-96080000D03*
X170440000Y-96080000D03*
D14*
X171890000Y-97530000D03*
X171890000Y-98330000D03*
X171890000Y-99130000D03*
X171890000Y-99930000D03*
X171890000Y-100730000D03*
X171890000Y-101530000D03*
X171890000Y-102330000D03*
X171890000Y-103130000D03*
D13*
X170440000Y-104580000D03*
X169640000Y-104580000D03*
X168840000Y-104580000D03*
X168040000Y-104580000D03*
X167240000Y-104580000D03*
X166440000Y-104580000D03*
X165640000Y-104580000D03*
X164840000Y-104580000D03*
D14*
X163390000Y-103130000D03*
X163390000Y-102330000D03*
X163390000Y-101530000D03*
X163390000Y-100730000D03*
X163390000Y-99930000D03*
X163390000Y-99130000D03*
X163390000Y-98330000D03*
X163390000Y-97530000D03*
D15*
X151130000Y-109220000D03*
D16*
X151130000Y-111760000D03*
X151130000Y-114300000D03*
X151130000Y-116840000D03*
X151130000Y-119380000D03*
D17*
X173910000Y-113665000D03*
X176610000Y-113665000D03*
X145970000Y-106045000D03*
X148670000Y-106045000D03*
X145970000Y-102235000D03*
X148670000Y-102235000D03*
X145970000Y-97790000D03*
X148670000Y-97790000D03*
X145970000Y-95250000D03*
X148670000Y-95250000D03*
X145970000Y-91440000D03*
X148670000Y-91440000D03*
X145970000Y-104140000D03*
X148670000Y-104140000D03*
X145970000Y-100330000D03*
X148670000Y-100330000D03*
X145970000Y-93345000D03*
X148670000Y-93345000D03*
D18*
X169520000Y-116840000D03*
D19*
X163220000Y-116840000D03*
X163220000Y-114540000D03*
X163220000Y-119140000D03*
D17*
X173910000Y-116840000D03*
X176610000Y-116840000D03*
D12*
X176210000Y-110490000D03*
X174310000Y-110490000D03*
D20*
X185420000Y-93980000D03*
X185420000Y-109220000D03*
X185420000Y-101600000D03*
X185420000Y-116840000D03*
D21*
X158750000Y-115245000D03*
X158750000Y-95245000D03*
M02*
