M48
METRIC,TZ
T1C0.400
T2C0.600
T3C1.000
T4C1.100
%
G90
G05
T1
X134040Y-116205
X134366Y-108458
X134620Y-94234
X134620Y-101854
X135382Y-92456
X135382Y-100330
X135382Y-106426
X136144Y-96266
X136144Y-97282
X136144Y-102870
X136906Y-99060
X136906Y-101092
X137160Y-92710
X138938Y-91186
X138938Y-106172
X140208Y-93472
X140208Y-103886
X140208Y-107950
X141478Y-95250
X141478Y-99060
X141660Y-118110
X142240Y-97028
X142240Y-104648
X143002Y-97790
X143002Y-101092
X143764Y-102870
X144272Y-103886
X144526Y-99060
X144526Y-100330
X144526Y-102108
X144526Y-106172
X144780Y-93472
X144780Y-95758
X144780Y-96774
X150622Y-97282
X151765Y-98425
X153035Y-99060
X168656Y-102870
X171450Y-107950
X172085Y-110490
X172720Y-105410
X172720Y-107950
X173355Y-104140
X173990Y-101600
X175260Y-102235
X177165Y-102870
X177165Y-104140
X177165Y-109220
X178435Y-104140
X178435Y-110490
X179705Y-110490
T2
X157480Y-107442
X160655Y-118745
X165735Y-111760
X167132Y-102616
X168275Y-97790
X170180Y-100330
T3
X151130Y-109220
X151130Y-111760
X151130Y-114300
X151130Y-116840
X151130Y-119380
T4
X158750Y-95245
X158750Y-115245
T0
M30
