G04 #@! TF.FileFunction,Soldermask,Top*
%FSLAX46Y46*%
G04 Gerber Fmt 4.6, Leading zero omitted, Abs format (unit mm)*
G04 Created by KiCad (PCBNEW 4.0.4-stable) date 04/15/18 13:16:19*
%MOMM*%
%LPD*%
G01*
G04 APERTURE LIST*
%ADD10C,0.100000*%
%ADD11R,2.100000X2.100000*%
%ADD12O,2.100000X2.100000*%
%ADD13O,2.940000X1.924000*%
%ADD14R,1.670000X2.940000*%
%ADD15R,5.400000X1.400000*%
%ADD16R,1.900000X2.400000*%
%ADD17C,1.800000*%
%ADD18R,2.400000X1.500000*%
G04 APERTURE END LIST*
D10*
D11*
X151130000Y-109220000D03*
D12*
X151130000Y-111760000D03*
X151130000Y-114300000D03*
X151130000Y-116840000D03*
X151130000Y-119380000D03*
D13*
X132080000Y-99060000D03*
X132080000Y-97180000D03*
X132080000Y-100940000D03*
X132080000Y-102820000D03*
X132080000Y-104700000D03*
X132080000Y-106580000D03*
X132080000Y-108460000D03*
X132080000Y-95300000D03*
X132080000Y-93420000D03*
X132080000Y-91540000D03*
X147080000Y-108460000D03*
X147080000Y-106580000D03*
X147080000Y-104700000D03*
X147080000Y-102820000D03*
X147080000Y-100940000D03*
X147080000Y-99060000D03*
X147080000Y-97180000D03*
X147080000Y-95300000D03*
X147080000Y-93420000D03*
X147080000Y-91540000D03*
D14*
X134040000Y-120650000D03*
X134040000Y-112650000D03*
X138540000Y-112650000D03*
X138540000Y-120650000D03*
X141660000Y-120650000D03*
X141660000Y-112650000D03*
X146160000Y-112650000D03*
X146160000Y-120650000D03*
D15*
X173750000Y-120045000D03*
D16*
X179750000Y-91045000D03*
X178750000Y-119445000D03*
X167250000Y-119445000D03*
D17*
X158750000Y-115245000D03*
D18*
X155250000Y-118295000D03*
X155250000Y-115795000D03*
X155250000Y-114095000D03*
X155250000Y-111695000D03*
X155250000Y-109195000D03*
X155250000Y-106695000D03*
X155250000Y-104195000D03*
X155250000Y-101695000D03*
X155250000Y-99195000D03*
X155250000Y-96695000D03*
D17*
X158750000Y-95245000D03*
D15*
X173750000Y-90645000D03*
M02*
