G04 #@! TF.FileFunction,Copper,L2,Bot,Signal*
%FSLAX46Y46*%
G04 Gerber Fmt 4.6, Leading zero omitted, Abs format (unit mm)*
G04 Created by KiCad (PCBNEW 4.0.4-stable) date 04/15/18 13:16:19*
%MOMM*%
%LPD*%
G01*
G04 APERTURE LIST*
%ADD10C,0.100000*%
%ADD11R,1.500000X1.250000*%
%ADD12R,1.200000X0.750000*%
%ADD13R,0.550000X1.600000*%
%ADD14R,1.600000X0.550000*%
%ADD15R,1.700000X1.700000*%
%ADD16O,1.700000X1.700000*%
%ADD17R,1.500000X1.300000*%
%ADD18R,2.000000X3.800000*%
%ADD19R,2.000000X1.500000*%
%ADD20R,4.000000X4.000000*%
%ADD21C,1.400000*%
%ADD22C,0.800000*%
%ADD23C,0.600000*%
%ADD24C,0.500000*%
%ADD25C,0.300000*%
G04 APERTURE END LIST*
D10*
D11*
X170160000Y-111760000D03*
X167660000Y-111760000D03*
D12*
X169860000Y-109220000D03*
X167960000Y-109220000D03*
D13*
X164840000Y-96080000D03*
X165640000Y-96080000D03*
X166440000Y-96080000D03*
X167240000Y-96080000D03*
X168040000Y-96080000D03*
X168840000Y-96080000D03*
X169640000Y-96080000D03*
X170440000Y-96080000D03*
D14*
X171890000Y-97530000D03*
X171890000Y-98330000D03*
X171890000Y-99130000D03*
X171890000Y-99930000D03*
X171890000Y-100730000D03*
X171890000Y-101530000D03*
X171890000Y-102330000D03*
X171890000Y-103130000D03*
D13*
X170440000Y-104580000D03*
X169640000Y-104580000D03*
X168840000Y-104580000D03*
X168040000Y-104580000D03*
X167240000Y-104580000D03*
X166440000Y-104580000D03*
X165640000Y-104580000D03*
X164840000Y-104580000D03*
D14*
X163390000Y-103130000D03*
X163390000Y-102330000D03*
X163390000Y-101530000D03*
X163390000Y-100730000D03*
X163390000Y-99930000D03*
X163390000Y-99130000D03*
X163390000Y-98330000D03*
X163390000Y-97530000D03*
D15*
X151130000Y-109220000D03*
D16*
X151130000Y-111760000D03*
X151130000Y-114300000D03*
X151130000Y-116840000D03*
X151130000Y-119380000D03*
D17*
X173910000Y-113665000D03*
X176610000Y-113665000D03*
X145970000Y-106045000D03*
X148670000Y-106045000D03*
X145970000Y-102235000D03*
X148670000Y-102235000D03*
X145970000Y-97790000D03*
X148670000Y-97790000D03*
X145970000Y-95250000D03*
X148670000Y-95250000D03*
X145970000Y-91440000D03*
X148670000Y-91440000D03*
X145970000Y-104140000D03*
X148670000Y-104140000D03*
X145970000Y-100330000D03*
X148670000Y-100330000D03*
X145970000Y-93345000D03*
X148670000Y-93345000D03*
D18*
X169520000Y-116840000D03*
D19*
X163220000Y-116840000D03*
X163220000Y-114540000D03*
X163220000Y-119140000D03*
D17*
X173910000Y-116840000D03*
X176610000Y-116840000D03*
D12*
X176210000Y-110490000D03*
X174310000Y-110490000D03*
D20*
X185420000Y-93980000D03*
X185420000Y-109220000D03*
X185420000Y-101600000D03*
X185420000Y-116840000D03*
D21*
X158750000Y-115245000D03*
X158750000Y-95245000D03*
D22*
X157480000Y-107442000D03*
X160655000Y-118745000D03*
X167132000Y-102616000D03*
X170180000Y-100330000D03*
X165735000Y-111760000D03*
X168275000Y-97790000D03*
D23*
X173990000Y-101600000D03*
X172720000Y-105410000D03*
X171450000Y-107950000D03*
X173355000Y-104140000D03*
X172720000Y-107950000D03*
X134040000Y-116205000D03*
X178435000Y-104140000D03*
X178435000Y-110490000D03*
X141660000Y-118110000D03*
X179705000Y-110490000D03*
X177165000Y-102870000D03*
X175260000Y-102235000D03*
X168656000Y-102870000D03*
X177165000Y-104140000D03*
X177165000Y-109220000D03*
X153035000Y-99060000D03*
X151765000Y-98425000D03*
X150622000Y-97282000D03*
X144780000Y-96774000D03*
X142240000Y-97028000D03*
X142240000Y-104648000D03*
X144526000Y-99060000D03*
X141478000Y-95250000D03*
X141478000Y-99060000D03*
X144780000Y-93472000D03*
X137160000Y-92710000D03*
X136906000Y-101092000D03*
X136906000Y-99060000D03*
X136144000Y-97282000D03*
X144780000Y-95758000D03*
X136144000Y-96266000D03*
X136144000Y-102870000D03*
X135382000Y-92456000D03*
X144526000Y-100330000D03*
X135382000Y-100330000D03*
X135382000Y-106426000D03*
X134620000Y-101854000D03*
X144526000Y-102108000D03*
X134620000Y-94234000D03*
X134366000Y-108458000D03*
X140208000Y-107950000D03*
X144272000Y-103886000D03*
X140208000Y-103886000D03*
X140208000Y-93472000D03*
X144526000Y-106172000D03*
X138938000Y-106172000D03*
X138938000Y-91186000D03*
X143764000Y-102870000D03*
X143002000Y-101092000D03*
X143002000Y-97790000D03*
X172085000Y-110490000D03*
D24*
X157734000Y-107696000D02*
X157480000Y-107442000D01*
X166370000Y-114300000D02*
X164084000Y-112014000D01*
X164084000Y-112014000D02*
X162052000Y-112014000D01*
X162052000Y-112014000D02*
X157734000Y-107696000D01*
X166370000Y-116840000D02*
X166370000Y-114300000D01*
X170160000Y-111760000D02*
X170160000Y-109520000D01*
X170160000Y-109520000D02*
X169860000Y-109220000D01*
X169520000Y-116840000D02*
X173910000Y-116840000D01*
X169520000Y-116840000D02*
X169520000Y-113690000D01*
X170160000Y-113050000D02*
X170160000Y-109520000D01*
X169520000Y-113690000D02*
X170160000Y-113050000D01*
X170160000Y-109520000D02*
X170180000Y-109500000D01*
X170180000Y-109500000D02*
X170180000Y-108585000D01*
X170180000Y-108585000D02*
X169640000Y-108045000D01*
X163220000Y-116840000D02*
X166370000Y-116840000D01*
X166370000Y-116840000D02*
X169520000Y-116840000D01*
X169640000Y-104580000D02*
X169640000Y-102330000D01*
X169640000Y-102330000D02*
X167240000Y-99930000D01*
X169640000Y-108045000D02*
X169640000Y-104580000D01*
X167240000Y-99930000D02*
X167240000Y-96080000D01*
X163220000Y-119140000D02*
X161050000Y-119140000D01*
X161050000Y-119140000D02*
X160655000Y-118745000D01*
X167240000Y-104580000D02*
X167240000Y-102724000D01*
X167240000Y-102724000D02*
X167132000Y-102616000D01*
X167005000Y-106680000D02*
X166370000Y-107315000D01*
X167240000Y-106445000D02*
X167005000Y-106680000D01*
X167240000Y-104580000D02*
X167240000Y-106445000D01*
X166370000Y-107315000D02*
X166370000Y-109220000D01*
X166370000Y-109220000D02*
X166370000Y-111760000D01*
X171890000Y-100730000D02*
X170580000Y-100730000D01*
X170580000Y-100730000D02*
X170180000Y-100330000D01*
X167960000Y-109220000D02*
X166370000Y-109220000D01*
X167660000Y-111760000D02*
X166370000Y-111760000D01*
X166370000Y-111760000D02*
X165735000Y-111760000D01*
X168040000Y-96080000D02*
X168040000Y-97555000D01*
X168040000Y-97555000D02*
X168275000Y-97790000D01*
D25*
X173990000Y-101600000D02*
X171960000Y-101600000D01*
X171960000Y-101600000D02*
X171890000Y-101530000D01*
X173990000Y-101600000D02*
X173806000Y-101784000D01*
X174625000Y-105410000D02*
X172720000Y-105410000D01*
X171890000Y-102330000D02*
X173450000Y-102330000D01*
X174625000Y-103505000D02*
X174625000Y-105410000D01*
X173450000Y-102330000D02*
X174625000Y-103505000D01*
X182245000Y-97155000D02*
X185420000Y-93980000D01*
X182245000Y-102870000D02*
X182245000Y-97155000D01*
X179705000Y-105410000D02*
X182245000Y-102870000D01*
X174625000Y-105410000D02*
X179705000Y-105410000D01*
X172720000Y-106680000D02*
X171577000Y-106680000D01*
X172720000Y-106680000D02*
X180340000Y-106680000D01*
X185420000Y-101600000D02*
X180340000Y-106680000D01*
X171577000Y-106680000D02*
X171196000Y-107061000D01*
X170440000Y-104580000D02*
X170440000Y-106305000D01*
X171450000Y-107315000D02*
X171450000Y-107950000D01*
X170440000Y-106305000D02*
X171196000Y-107061000D01*
X171196000Y-107061000D02*
X171450000Y-107315000D01*
X173355000Y-104140000D02*
X172345000Y-103130000D01*
X172345000Y-103130000D02*
X171890000Y-103130000D01*
X182245000Y-109220000D02*
X185420000Y-109220000D01*
X180975000Y-107950000D02*
X182245000Y-109220000D01*
X172720000Y-107950000D02*
X180975000Y-107950000D01*
X172345000Y-103130000D02*
X171890000Y-103130000D01*
X148670000Y-95250000D02*
X149860000Y-95250000D01*
X149860000Y-95250000D02*
X150495000Y-94615000D01*
X165640000Y-93885000D02*
X165640000Y-96080000D01*
X165100000Y-93345000D02*
X165640000Y-93885000D01*
X163830000Y-93345000D02*
X165100000Y-93345000D01*
X158115000Y-93345000D02*
X163830000Y-93345000D01*
X156845000Y-94615000D02*
X158115000Y-93345000D01*
X150495000Y-94615000D02*
X156845000Y-94615000D01*
X148670000Y-93345000D02*
X156845000Y-93345000D01*
X156845000Y-93345000D02*
X157480000Y-92710000D01*
X172980000Y-97530000D02*
X171890000Y-97530000D01*
X173355000Y-97155000D02*
X172980000Y-97530000D01*
X173355000Y-95250000D02*
X173355000Y-97155000D01*
X170815000Y-92710000D02*
X173355000Y-95250000D01*
X157480000Y-92710000D02*
X170815000Y-92710000D01*
X173450000Y-98330000D02*
X171890000Y-98330000D01*
X173990000Y-97790000D02*
X173450000Y-98330000D01*
X173990000Y-94615000D02*
X173990000Y-97790000D01*
X171450000Y-92075000D02*
X173990000Y-94615000D01*
X153670000Y-92075000D02*
X171450000Y-92075000D01*
X148670000Y-91440000D02*
X153035000Y-91440000D01*
X153035000Y-91440000D02*
X153670000Y-92075000D01*
X178435000Y-110490000D02*
X178435000Y-120015000D01*
X168275000Y-121285000D02*
X158750000Y-121285000D01*
X134040000Y-116205000D02*
X141605000Y-116205000D01*
X141605000Y-116205000D02*
X143510000Y-118110000D01*
X143510000Y-118110000D02*
X152400000Y-118110000D01*
X152400000Y-118110000D02*
X155575000Y-121285000D01*
X158750000Y-121285000D02*
X155575000Y-121285000D01*
X168275000Y-121285000D02*
X177165000Y-121285000D01*
X174695000Y-99130000D02*
X171890000Y-99130000D01*
X178435000Y-102870000D02*
X174695000Y-99130000D01*
X178435000Y-104140000D02*
X178435000Y-102870000D01*
X178435000Y-120015000D02*
X177165000Y-121285000D01*
X179705000Y-110490000D02*
X179705000Y-120015000D01*
X171450000Y-121920000D02*
X165735000Y-121920000D01*
X141660000Y-118110000D02*
X145470000Y-121920000D01*
X165735000Y-121920000D02*
X145470000Y-121920000D01*
X171450000Y-121920000D02*
X177800000Y-121920000D01*
X177165000Y-102870000D02*
X174225000Y-99930000D01*
X174225000Y-99930000D02*
X171890000Y-99930000D01*
X179705000Y-120015000D02*
X177800000Y-121920000D01*
X165640000Y-106585000D02*
X165640000Y-104580000D01*
X165735000Y-106680000D02*
X165640000Y-106585000D01*
X159385000Y-106680000D02*
X165735000Y-106680000D01*
X158750000Y-106045000D02*
X159385000Y-106680000D01*
X153670000Y-106045000D02*
X158750000Y-106045000D01*
X148670000Y-106045000D02*
X153670000Y-106045000D01*
X153670000Y-106045000D02*
X153670000Y-106045000D01*
X164465000Y-105410000D02*
X164840000Y-105035000D01*
X160020000Y-105410000D02*
X164465000Y-105410000D01*
X158750000Y-104140000D02*
X160020000Y-105410000D01*
X164840000Y-105035000D02*
X164840000Y-104580000D01*
X148670000Y-104140000D02*
X153670000Y-104140000D01*
X153670000Y-104140000D02*
X158750000Y-104140000D01*
X150755000Y-103130000D02*
X163390000Y-103130000D01*
X148670000Y-102235000D02*
X149860000Y-102235000D01*
X149860000Y-102235000D02*
X150755000Y-103130000D01*
X151860000Y-102330000D02*
X163390000Y-102330000D01*
X148670000Y-100330000D02*
X149860000Y-100330000D01*
X149860000Y-100330000D02*
X151860000Y-102330000D01*
X151130000Y-99060000D02*
X149860000Y-97790000D01*
X152800000Y-100730000D02*
X151130000Y-99060000D01*
X163390000Y-100730000D02*
X152800000Y-100730000D01*
X149860000Y-97790000D02*
X148670000Y-97790000D01*
X165716000Y-99930000D02*
X163390000Y-99930000D01*
X168656000Y-102870000D02*
X165716000Y-99930000D01*
X177480000Y-109220000D02*
X177165000Y-109220000D01*
X175260000Y-102235000D02*
X175260000Y-102235000D01*
X177165000Y-104140000D02*
X175260000Y-102235000D01*
X180340000Y-109220000D02*
X177480000Y-109220000D01*
X182245000Y-116840000D02*
X180975000Y-115570000D01*
X180975000Y-115570000D02*
X180975000Y-109855000D01*
X180975000Y-109855000D02*
X180340000Y-109220000D01*
X185420000Y-116840000D02*
X182245000Y-116840000D01*
X177480000Y-109220000D02*
X176210000Y-110490000D01*
X176210000Y-110490000D02*
X176210000Y-113265000D01*
X176210000Y-113265000D02*
X176610000Y-113665000D01*
X176610000Y-113665000D02*
X176610000Y-116840000D01*
X176530000Y-116760000D02*
X176610000Y-116840000D01*
X153105000Y-99130000D02*
X163390000Y-99130000D01*
X153035000Y-99060000D02*
X153105000Y-99130000D01*
X151860000Y-98330000D02*
X163390000Y-98330000D01*
X151765000Y-98425000D02*
X151860000Y-98330000D01*
X150622000Y-97282000D02*
X150755000Y-97530000D01*
X163390000Y-97530000D02*
X150755000Y-97530000D01*
D24*
X151130000Y-109220000D02*
X156210000Y-109220000D01*
X161530000Y-114540000D02*
X163220000Y-114540000D01*
X156210000Y-109220000D02*
X161530000Y-114540000D01*
D25*
X150300000Y-96080000D02*
X152468000Y-96080000D01*
X145034000Y-96520000D02*
X144780000Y-96774000D01*
X142240000Y-104648000D02*
X142240000Y-97028000D01*
X150300000Y-96080000D02*
X149860000Y-96520000D01*
X149860000Y-96520000D02*
X145034000Y-96520000D01*
X164840000Y-94736000D02*
X164840000Y-96080000D01*
X164592000Y-94488000D02*
X164840000Y-94736000D01*
X162814000Y-94488000D02*
X164592000Y-94488000D01*
X160782000Y-96520000D02*
X162814000Y-94488000D01*
X152908000Y-96520000D02*
X160782000Y-96520000D01*
X152468000Y-96080000D02*
X152908000Y-96520000D01*
X155505000Y-101530000D02*
X155435000Y-101600000D01*
X155435000Y-101600000D02*
X152400000Y-101600000D01*
X152400000Y-101600000D02*
X149860000Y-99060000D01*
X149860000Y-99060000D02*
X144526000Y-99060000D01*
X163390000Y-101530000D02*
X155505000Y-101530000D01*
X141478000Y-99060000D02*
X141478000Y-95250000D01*
X144780000Y-93472000D02*
X144907000Y-93345000D01*
X145970000Y-93345000D02*
X144907000Y-93345000D01*
X136906000Y-92964000D02*
X136906000Y-99060000D01*
X137160000Y-92710000D02*
X136906000Y-92964000D01*
X136906000Y-101092000D02*
X136906000Y-99060000D01*
X144780000Y-95758000D02*
X145288000Y-95250000D01*
X136144000Y-102870000D02*
X136144000Y-97282000D01*
X136144000Y-97282000D02*
X136144000Y-96266000D01*
X145288000Y-95250000D02*
X145970000Y-95250000D01*
X135382000Y-100330000D02*
X135382000Y-92456000D01*
X144526000Y-100330000D02*
X145970000Y-100330000D01*
X135382000Y-106426000D02*
X135382000Y-100330000D01*
X145970000Y-102235000D02*
X144653000Y-102235000D01*
X144653000Y-102235000D02*
X144526000Y-102108000D01*
X134620000Y-108204000D02*
X134620000Y-101854000D01*
X134620000Y-101854000D02*
X134620000Y-94234000D01*
X134366000Y-108458000D02*
X134620000Y-108204000D01*
X140208000Y-103886000D02*
X140208000Y-107950000D01*
X144526000Y-104140000D02*
X145970000Y-104140000D01*
X144272000Y-103886000D02*
X144526000Y-104140000D01*
X140208000Y-93472000D02*
X140208000Y-103886000D01*
X145970000Y-106045000D02*
X144653000Y-106045000D01*
X144653000Y-106045000D02*
X144526000Y-106172000D01*
X138938000Y-91186000D02*
X138938000Y-106172000D01*
X145970000Y-97790000D02*
X144272000Y-97790000D01*
X143764000Y-98298000D02*
X143764000Y-102870000D01*
X144272000Y-97790000D02*
X143764000Y-98298000D01*
X143002000Y-97790000D02*
X143002000Y-101092000D01*
X145970000Y-91440000D02*
X143256000Y-91440000D01*
X143002000Y-91694000D02*
X143002000Y-97790000D01*
X143256000Y-91440000D02*
X143002000Y-91694000D01*
X172085000Y-110490000D02*
X174310000Y-110490000D01*
X174310000Y-110490000D02*
X173910000Y-110890000D01*
X173910000Y-110890000D02*
X173910000Y-113665000D01*
M02*
